<?xml version="1.0" standalone="no"?>
<!DOCTYPE svg PUBLIC "-//W3C//DTD SVG 1.1//EN" "http://www.w3.org/Graphics/SVG/1.1/DTD/svg11.dtd" >
<!--
2013-9-30: Created.
-->
<svg>
<metadata>
Created by iconfont
</metadata>
<defs>

<font id="iconfont" horiz-adv-x="1024" >
  <font-face
    font-family="iconfont"
    font-weight="500"
    font-stretch="normal"
    units-per-em="1024"
    ascent="896"
    descent="-128"
  />
    <missing-glyph />
    
    <glyph glyph-name="bangong" unicode="&#59003;" d="M551.988-201.634c-92.012 0-166.886 70.028-166.886 156.11v524.197c0 67.728 55.103 122.809 122.832 122.809 67.728 0 122.786-55.081 122.786-122.809v-453.718c0-16.007-12.965-28.994-28.973-28.994-16.006 0-28.972 12.987-28.972 28.994v453.718c0 35.759-29.085 64.843-64.843 64.843s-64.844-29.085-64.844-64.843v-524.198c0-54.11 48.835-98.144 108.898-98.144 83.826 0 126.348 56.23 126.348 167.068v505.418c0 92.123-74.942 167.044-167.067 167.044-92.124 0-167.067-74.922-167.067-167.044v-505.418c0-16.009-12.964-28.994-28.972-28.994-16.031 0-28.994 12.986-28.994 28.994v505.418c0 124.070 100.962 225.009 225.034 225.009 124.070 0 225.034-100.939 225.034-225.009v-505.418c-0.001-143.011-67.166-225.034-184.315-225.034z"  horiz-adv-x="1024" />

    
    <glyph glyph-name="lijinqia2" unicode="&#59203;" d="M872.298191 536.736684l-95.881683 0c12.791046 26.196063 18.82842 54.950335 17.088838 83.602278-2.148896 34.075347-15.860897 64.159888-36.633557 80.430099-16.167882 12.688718-37.65684 19.340062-62.215649 19.340062-47.275707 0-100.486459-24.865794-142.338763-66.411112-17.395823-17.293495-30.391526-35.507944-40.215049-53.415409C502.278805 618.087739 489.180773 636.302188 471.784951 653.595683c-41.852303 41.647647-95.165384 66.411112-142.338763 66.411112-24.45648 0-46.047767-6.651344-62.215649-19.340062-20.772659-16.270211-34.484661-46.354752-36.633557-80.430099-1.841911-28.651944 4.195463-57.406216 16.986509-83.602278l-95.881683 0c-48.605976 0-88.207055-39.601079-88.207055-88.207055l0-40.010393c0-45.84311 35.200959-83.704607 80.020785-87.797742l0-292.454482c0-81.760368 66.513441-148.273808 148.273808-148.273808l0 0 440.318977 0c81.760368 0 148.273808 66.513441 148.273808 148.273808L880.382133 320.619167c44.819826 4.093135 80.020785 41.954632 80.020785 87.797742l0 40.010393C960.505246 497.135605 920.904167 536.736684 872.298191 536.736684zM199.898471 320.209853l283.858899 0 0-372.065954c0-4.195463 0.920955-8.288598 2.660538-11.870091L291.891676-63.726192c-50.652543 0-91.890876 41.238333-91.890876 91.890876l0 0L199.898471 320.209853 199.898471 320.209853zM483.859698 480.353752l0-103.760967L151.804137 376.592785c-17.60048 0-31.926451 14.325972-31.926451 31.824123l0 40.010393c0 17.60048 14.325972 31.926451 31.926451 31.926451L483.859698 480.353752zM540.140302-51.856101 540.140302 320.209853l283.858899 0 0-292.045168c0-50.652543-41.238333-91.890876-91.890876-91.890876L537.582093-63.726192C539.219346-60.144699 540.140302-56.051564 540.140302-51.856101zM872.298191 376.592785 540.140302 376.592785 540.140302 480.353752l332.055561 0c17.60048 0 31.926451-14.325972 31.926451-31.926451l0-40.010393C904.122314 390.918757 889.796343 376.592785 872.298191 376.592785zM546.382332 536.736684c8.697911 29.265914 24.558809 56.178275 45.536125 76.950934 31.619466 31.41481 69.992605 50.140901 102.737684 50.140901 11.665434 0 21.386629-2.660538 27.526332-7.367643 6.651344-5.218747 13.916658-19.44239 15.144599-39.601079 1.739582-27.935645-8.18627-56.894574-27.526332-80.123114l0 0L546.382332 536.736684 546.382332 536.736684zM314.301589 536.736684c-19.237734 23.22854-29.265914 52.08514-27.424003 80.123114 1.22794 20.158689 8.493255 34.382332 15.144599 39.601079 6.139702 4.809433 15.656241 7.367643 27.526332 7.367643 32.745078 0 71.118217-18.726092 102.737684-50.140901 20.977316-20.772659 36.838213-47.68502 45.536125-76.950934L314.301589 536.736684 314.301589 536.736684z"  horiz-adv-x="1024" />

    
    <glyph glyph-name="riyongbaihuo" unicode="&#58908;" d="M943.79019 660.404214c0.00307 0.315178 0.096191 0.617054 0.096191 0.932232 0 93.898577-155.378813 170.018232-347.046111 170.018232-177.005366 0-322.767148-64.967664-344.075453-148.854213l-2.969635 0.023536 0-0.021489L104.516402 682.502511c-9.380648 0-18.176988-4.561899-23.579021-12.233626-5.396917-7.66968-6.734378-17.491373-3.571339-26.323529l100.643188-281.210683L77.366042 81.526037c-3.157923-8.834202-1.830695-18.650779 3.571339-26.320459 5.402033-7.66968 14.198374-12.233626 23.579021-12.233626l170.594353 0c53.623291-61.057611 179.425486-103.939257 323.215356-103.939257 177.88541 0 325.348949 65.600067 345.517291 150.092413 0.088004 4.88731-0.053212 9.736758-0.053212 14.563694L943.79019 660.404214zM600.449471 786.418232c155.013493 0 280.676517-56.000432 280.676517-125.081787 0-69.080332-125.663024-125.07974-280.676517-125.07974-155.01247 0-280.676517 56.000432-280.676517 125.07974C319.773977 730.418824 445.438025 786.418232 600.449471 786.418232zM249.796206 90.921012 135.02423 90.921012l90.323145 262.098393c2.249227 6.2831 2.249227 13.152555 0 19.432585l-90.323145 261.042341 114.771977 0L249.796206 90.921012zM897.181663 103.704153c0-0.036839-0.212848-6.54609-3.068895-14.57802l0.192382 0c-24.02723-59.585073-152.61077-105.155968-292.369837-105.155968-139.758044 0-277.32519 45.570895-302.522058 105.155968-2.416026 7.136537-3.00238 13.066597-3.013637 14.502295L296.399617 406.135136c0.005117 29.136597 0.074701 103.621009 0.199545 170.198334 60.031235-50.77236 171.859159-85.012186 300.242132-85.012186 128.454604 0 240.339834 34.279734 300.346509 85.09712l0-472.708112L897.181663 103.704153zM597.177961 716.209194c-74.018807 0-134.024459-24.566512-134.024459-54.871725s60.004629-54.871725 134.024459-54.871725c74.020854 0 134.025483 24.566512 134.025483 54.871725S671.198815 716.209194 597.177961 716.209194zM597.177961 639.384481c-52.42807 0-88.249927 7.642051-88.249927 21.952988 0 14.312984 35.821857 25.914206 88.249927 25.914206 52.430116 0 90.485851-11.601222 90.485851-25.914206C687.664835 647.026532 649.609101 639.384481 597.177961 639.384481z"  horiz-adv-x="1024" />

    
    <glyph glyph-name="shucai-copy" unicode="&#58886;" d="M919.904 553.042c-1.732 2.128-3.453 4.044-5.15 5.804-2.012 2.829-4.612 5.206-7.615 6.965-0.896 0.71-1.763 1.371-2.575 1.946l-0.349-0.489c-2.89 1.203-6.058 1.869-9.38 1.869-13.503 0-24.447-10.943-24.447-24.447 0-8.454 4.3-15.908 10.828-20.3 0.459-0.512 0.931-1.056 1.406-1.635 8.204-10.1 8.204-17.471-7.605-31.075-6.896-5.934-14.418-11.198-22.481-15.829-15.721-9.021-32.76-15.248-49.821-19.116-1.898-0.433-3.716-0.816-5.432-1.155-2.918 16.101-6.94 32.153-12.227 47.995-12.477 37.413-31.436 71.077-57.68 99.856-8.123 8.911-16.58 17.006-25.342 24.331 2.099 3.447 4.764 7.702 7.928 12.597 9.361 14.48 19.541 28.956 30.135 42.378 16.096 20.391 31.613 36.353 45.333 45.974 13.114 9.197 21.136 10.79 25.781 7.883 60.728-37.972 72.188-51.111 65.184-73.828-4.623-15.022-10.315-24.202-21.012-34.157-6.998-6.509-16.359-13.575-31.241-23.678-8.18-5.557-31.724-21.006-40.055-26.565l0.085-0.124c-6.743-4.171-11.234-11.624-11.234-20.134 0-13.066 10.588-23.654 23.654-23.654 7.377 0 13.963 3.374 18.302 8.666 10.703 6.582 29.168 17.276 36.233 22.074 16.738 11.364 27.79 19.71 36.971 28.246 16.933 15.746 27.125 32.201 34.205 55.177 16.313 52.933-6.778 79.398-85.624 128.707-24.325 15.208-51.64 9.788-78.837-9.29-9.226-6.472-18.518-14.543-27.878-24.010-5.286 17.333-21.133 36.195-51.312 52.536-1.376 0.747-2.782 1.485-4.215 2.219-23.539 12.022-45.796 2.791-61.627-18.618-9.938-13.446-18.019-32.043-25.028-54.921-4.391-14.333-8.092-29.527-11.155-44.704-0.033-0.154-0.060-0.302-0.091-0.456-27.273 2.358-54.317-0.263-80.258-6.62-21.020-2.53-38.684-19.433-43.544-24.676-8.101-8.728-16.207-17.754-23.809-26.627-2.684-3.13-5.269-6.199-7.733-9.189-3.154-3.83-6.106-7.51-8.824-11.033-26.033-33.693-59.194-86.469-100.406-158.072-6.784-11.787-13.777-24.068-21.043-36.948-14.288-25.326-107.409-194.722-120.016-214.906-22.447-35.951-30.334-51.448-44.191-83.194-0.508-1.151-0.508-1.151-1.006-2.292-3.917-8.917-6.889-15.152-10.849-22.506-1.357-2.521-6.844-12.439-7.895-14.365-3.344-6.136-5.947-11.173-8.287-16.16-10.295-21.915-14.111-39.584-7.639-56.754 8.57-22.729 31.381-32.853 64.945-32.853 111.278 0 461.754 187.263 608.912 301.384 2.431 1.89 4.755 3.859 6.98 5.911 11.408 10.516 18.57 21.182 22.309 29.239l1.653 4.861c1.008 4.492 2.418 12.281 3.802 22.832 3.35 25.619 4.645 52.328 3.212 79.354 21.458 3.606 47.416 11.7 73.594 26.723 10.63 6.101 20.64 13.104 29.905 21.081 37.086 31.915 37.086 68.801 13.554 97.769v0zM623.717 671.034c2.774 13.748 6.116 27.47 9.998 40.134 5.546 18.118 11.71 32.308 17.722 40.432 1.888 2.556 2.282 3.491 2.114 3.898 0.751-0.388 1.506-0.781 2.227-1.175 23.045-12.477 28.25-21.038 28.206-23.439 0.006 0.182 0.006 0.182 0.010 0.379 0 0 6.212-5.052 16.959-5.417 10.746-0.36 16.125 4.309 16.125 4.309-4.88-5.544-9.773-11.432-14.683-17.653-11.618-14.721-22.647-30.4-32.777-46.069-2.691-4.165-5.171-8.107-7.431-11.777-12.716 6.762-25.583 12.112-38.514 16.158 0.012 0.077 0.027 0.142 0.043 0.22v0zM752.006 334.348c-0.892-6.817-1.763-12.112-2.445-15.651-1.819-3.053-5.232-7.578-10.246-12.203-1.233-1.137-2.517-2.225-3.856-3.258-40.37-31.313-98.004-69.012-161.84-106.748l-0.155 0.254-57.758 96.265c-3.595 8.844-12.262 15.076-22.394 15.076-13.35 0-24.172-10.823-24.172-24.172 0-5.277 1.692-10.158 4.563-14.13l-0.052-0.034 58.402-97.34c-147.070-83.515-313.253-160.481-376.065-160.481-15.807 0-20.045 1.883-19.997 1.758-0.518 1.367 1.006 8.403 6.169 19.394 1.864 3.975 4.064 8.23 6.989 13.598 0.924 1.692 6.496 11.759 8.011 14.577 4.649 8.633 8.138 15.962 12.53 25.946 0.527 1.208 0.527 1.208 1.048 2.401 12.991 29.748 19.851 43.236 40.917 76.968 7.073 11.327 36.507 64.14 64.778 115.128l72.902-89.343c4.376-5.861 11.366-9.654 19.247-9.654 13.258 0 24.004 10.747 24.004 24.004 0 6.131-2.301 11.725-6.083 15.968l0.034 0.024-85.039 104.265c14.988 27.079 27.029 48.855 31.262 56.356 7.204 12.764 14.126 24.926 20.841 36.588 25.904 45.009 48.516 82.33 67.832 111.619l2.952-4.856 81.076-133.269c3.409-9.224 12.275-15.794 22.678-15.794 13.353 0 24.17 10.823 24.17 24.177 0 3.692-0.829 7.19-2.309 10.32l0.221 0.134-12.483 20.521-85.917 142.411c0.946 1.256 28.43 32.657 36.134 40.959 2.494 2.689 4.668 5.009 6.472 6.913 3.255 1.087 7.732 2.415 13.282 3.777 43.404 10.632 90.398 8.307 134.171-15.76 17.767-9.769 34.485-22.965 50.005-39.982 21.515-23.594 37.168-51.389 47.608-82.69 16.803-50.375 18.989-104.638 12.517-154.034v0zM752.006 334.348z"  horiz-adv-x="1024" />

    
    <glyph glyph-name="33485" unicode="&#58947;" d="M896 576c35.312 0 64-28.688 64-64l0-512c0-35.312-28.688-64-64-64L128-64c-35.282 0-64 28.688-64 64L64 512c0 35.312 28.718 64 64 64L896 576M896 640 128 640c-70.688 0-128-57.312-128-128l0-512c0-70.688 57.312-128 128-128l768 0c70.688 0 128 57.312 128 128L1024 512C1024 582.688 966.688 640 896 640L896 640zM320 704 320 768c0 35.25 28.718 64 64 64l256 0c35.312 0 64-28.75 64-64l0-64 64 0L768 768c0 70.688-57.312 128-128 128L384 896c-70.688 0-128-57.312-128-128l0-64L320 704zM704 320l-128 0 0 128-128 0 0-128-128 0 0-128 128 0 0-128 128 0 0 128 128 0L704 320z"  horiz-adv-x="1024" />

    
    <glyph glyph-name="chichihehe" unicode="&#58903;" d="M454.659612 619.68254c-10.835979-6.320988-24.380952-1.805996-29.798942 9.029982-5.417989 10.835979-1.805996 24.380952 9.029982 29.798942 67.724868 37.022928 152.606702 31.604938 214.91358-15.35097 28.895944-21.671958 52.373898-51.470899 66.821869-84.881834 4.514991 0 9.029982 0.902998 13.544974 0.902998 84.881834 0 155.315697-70.433862 155.315697-155.315697l38.828924 0c20.768959 0 37.022928-16.253968 37.022928-37.022928l0-0.902998c0-170.666667-69.530864-249.227513-128.22575-314.243386-35.216931-38.828924-65.015873-73.142857-65.015873-120.098765 0-20.768959-16.253968-37.022928-37.022928-37.022928l-0.902998 0L299.343915-105.425044c-20.768959 0-37.022928 16.253968-37.022928 37.022928 0 46.955908-29.798942 81.269841-65.015873 120.098765-58.694885 65.918871-128.22575 144.479718-128.22575 315.146384 0 20.768959 17.156966 37.022928 37.022928 37.022928l0.902998 0 45.149912 0c-16.253968 36.119929-18.962963 74.948854-9.029982 111.068783 7.223986 28.895944 23.477954 55.985891 46.05291 77.657848L67.273369 803.89418C57.340388 821.954145 63.661376 844.529101 80.818342 854.462081 98.878307 864.395062 121.453263 858.977072 131.386243 840.917108l121.904762-212.204586c29.798942 9.029982 61.40388 9.932981 90.299824 1.805996 40.634921-10.835979 76.75485-37.022928 99.329806-76.75485 13.544974-22.574956 25.283951-55.985891 31.604938-91.202822 3.611993-18.962963 6.320988-38.828924 7.223986-58.694885l357.587302 0c0 61.40388-49.664903 110.165785-111.068783 110.165785-3.611993 0-8.126984 0-11.738977 0-3.611993-0.902998-7.223986-0.902998-10.835979-1.805996-11.738977-3.611993-24.380952 2.708995-27.089947 14.447972-9.932981 32.507937-29.798942 61.40388-56.888889 81.269841C573.855379 643.160494 507.936508 647.675485 454.659612 619.68254L454.659612 619.68254zM884.486772 329.820106 884.486772 329.820106c-246.518519 0-493.037037 0-739.555556 0 9.029982-118.292769 62.306878-177.890653 108.359788-229.361552 37.022928-41.537919 69.530864-78.560847 80.366843-131.837743l363.005291 0c10.835979 53.276896 43.343915 90.299824 80.366843 131.837743C822.179894 151.929453 875.45679 211.527337 884.486772 329.820106L884.486772 329.820106zM324.627866 558.27866 324.627866 558.27866c-46.955908 12.641975-96.620811-15.35097-109.262787-63.209877-10.835979-38.828924 3.611993-64.112875 26.186949-92.10582l167.054674 0c-0.902998 14.447972-2.708995 29.798942-5.417989 44.246914-5.417989 27.992945-13.544974 52.373898-22.574956 68.627866C367.068783 538.412698 347.202822 551.957672 324.627866 558.27866L324.627866 558.27866z"  horiz-adv-x="1024" />

    
    <glyph glyph-name="quanzhijianzhi" unicode="&#58914;" d="M853.893764 102.728942l-76.4246 0 0 27.952632 76.4246 0c16.954137 0 30.699186 13.745049 30.699186 30.699186s-13.745049 30.699186-30.699186 30.699186l-36.582173 0 50.508347 48.452525c12.235672 11.737322 12.639878 31.17093 0.902556 43.405579-11.737322 12.236696-31.17093 12.639878-43.405579 0.902556l-78.545914-75.348082-78.545914 75.348082c-12.234649 11.738345-31.66621 11.333116-43.405579-0.902556-11.737322-12.234649-11.333116-31.668257 0.902556-43.405579l50.508347-48.452525-36.583197 0c-16.954137 0-30.699186-13.745049-30.699186-30.699186s13.745049-30.699186 30.699186-30.699186l76.425623 0 0-27.952632-76.425623 0c-16.954137 0-30.699186-13.745049-30.699186-30.699186s13.745049-30.699186 30.699186-30.699186l76.425623 0 0-25.382087c0-16.954137 13.745049-30.699186 30.699186-30.699186s30.699186 13.745049 30.699186 30.699186l0 25.382087 76.4246 0c16.954137 0 30.699186 13.745049 30.699186 30.699186S870.848924 102.728942 853.893764 102.728942zM512.007163 600.133525c-16.954137 0-30.699186-13.745049-30.699186-30.699186l0-207.985962c0-16.954137 13.745049-30.699186 30.699186-30.699186l172.176384 0c16.954137 0 30.699186 13.745049 30.699186 30.699186s-13.745049 30.699186-30.699186 30.699186L542.706349 392.147564 542.706349 569.43434C542.706349 586.388477 528.9613 600.133525 512.007163 600.133525zM558.079478 49.543625c-3.098571 0-6.087649-0.462534-8.908904-1.313925-13.746072-1.833765-27.761274-2.805906-42.00058-2.805906-174.256766 0-316.024583 141.767817-316.024583 316.024583 0 174.255743 141.767817 316.02356 316.024583 316.02356 174.256766 0 316.024583-141.767817 316.024583-316.02356 0-3.167133-0.056282-6.321986-0.154519-9.465582 0.052189-0.033769 0.10847-0.059352 0.160659-0.092098-0.11461-1.079588-0.176009-2.175549-0.176009-3.285836 0-17.002232 13.782911-30.78412 30.78412-30.78412s30.78412 13.782911 30.78412 30.78412c0 1.072425-0.055259 2.131547-0.162706 3.175319 0.094144 3.216251 0.162706 6.436596 0.162706 9.668197 0 50.938136-9.983375 100.368942-29.67281 146.919141-19.009959 44.946678-46.219671 85.306898-80.871889 119.958092-34.651194 34.652218-75.012438 61.860906-119.959116 80.871889-37.138852 15.708773-76.111468 25.231661-116.219955 28.442796l0 19.013029c0 16.954137-13.745049 30.699186-30.699186 30.699186s-30.699186-13.745049-30.699186-30.699186l0-19.013029c-40.108486-3.211135-79.081103-12.735046-116.219955-28.442796-44.946678-19.010983-85.306898-46.219671-119.959116-80.871889-34.652218-34.651194-61.860906-75.011414-80.871889-119.958092-19.689435-46.550199-29.67281-95.981005-29.67281-146.919141 0-50.938136 9.983375-100.368942 29.67281-146.919141 19.010983-44.946678 46.219671-85.306898 80.871889-119.959116 34.652218-34.652218 75.011414-61.86193 119.959116-80.871889 46.550199-19.689435 95.981005-29.67281 146.919141-29.67281 18.061354 0 38.363749 1.223874 56.08025 4.38282-0.001023 0.002047-0.002047 0.004093-0.004093 0.007163 14.540158 2.459005 25.617447 15.103999 25.617447 30.344099C588.863598 35.760714 575.081711 49.543625 558.079478 49.543625z"  horiz-adv-x="1024" />

    
    <glyph glyph-name="dui" unicode="&#59012;" d="M404.929 88.487c-11.692 0-23.382 4.46-32.302 13.38L87.102 387.391c-17.84 17.84-17.84 46.76 0 64.6 17.84 17.84 46.765 17.84 64.602 0l253.222-253.219 467.366 467.364c17.84 17.837 46.76 17.837 64.6 0 17.84-17.84 17.84-46.762 0-64.602L437.229 101.867C428.309 92.947 416.619 88.487 404.929 88.487z"  horiz-adv-x="1024" />

    
    <glyph glyph-name="gongzi" unicode="&#58892;" d="M791.423479 689.682028l0 38.495756c0 12.706393-10.29139 23.016203-22.997784 23.016203L262.265704 751.193986c-12.706393 0-22.997784-10.308787-22.997784-23.016203l0-38.335097-4.492314 0c-58.845223 0-106.71958-47.874357-106.71958-106.701161l0-461.454814c0-58.8442 47.874357-106.718557 106.71958-106.718557l553.48074 0c58.82578 0 106.717534 47.874357 106.717534 106.718557L894.97388 583.141526C894.974903 640.894881 848.801281 687.981293 791.423479 689.682028zM848.944544 583.141526l0-138.719388-57.521065 0L791.423479 643.507382C823.387471 641.80767 848.944544 615.516888 848.944544 583.141526zM285.263487 705.181023l460.165448 0L745.428935 444.422138 285.263487 444.422138 285.263487 705.181023zM234.775606 643.829723l4.492314 0L239.26792 444.422138l-61.3513 0c-1.324158 0-2.577708-0.161682-3.830235-0.375553L174.086385 583.141526C174.087409 616.591359 201.3094 643.829723 234.775606 643.829723zM788.25737 60.981119 234.775606 60.981119c-33.467229 0-60.688197 27.239388-60.688197 60.705594L174.087409 398.803147c1.252527-0.214894 2.506077-0.375553 3.830235-0.375553l84.34806 0 506.161015 0 80.518848 0 0-276.740882C848.944544 88.220506 821.722552 60.981119 788.25737 60.981119zM565.636083 588.77892c7.873318 0 14.282285 6.389524 14.282285 14.263865 0 7.892761-6.408967 14.263865-14.282285 14.263865l-30.121018 0 28.600385 28.599362c5.564739 5.584182 5.564739 14.603603 0 20.169365-5.565762 5.584182-14.604626 5.584182-20.170388 0l-35.365462-35.347043-35.364439 35.347043c-5.565762 5.584182-14.603603 5.584182-20.151969 0-5.584182-5.565762-5.584182-14.586207 0-20.169365l28.580942-28.599362-30.121018 0c-7.874341 0-14.263865-6.371104-14.263865-14.263865 0-7.874341 6.389524-14.263865 14.263865-14.263865l42.791595 0 0-28.509311-42.791595 0c-7.874341 0-14.263865-6.389524-14.263865-14.282285 0-7.874341 6.389524-14.263865 14.263865-14.263865l42.791595 0 0-38.031175c0-7.891737 6.390547-14.262842 14.263865-14.262842 7.874341 0 14.263865 6.371104 14.263865 14.262842l0 38.031175L565.636083 531.723459c7.873318 0 14.282285 6.389524 14.282285 14.263865 0 7.891737-6.408967 14.282285-14.282285 14.282285l-42.790572 0 0 28.509311L565.636083 588.77892z"  horiz-adv-x="1024" />

    
    <glyph glyph-name="qiche" unicode="&#58922;" d="M949.331905 326.723505c-3.657296 48.948829-35.241642 92.183516-80.490196 112.342648l-40.647769 191.108572c-14.877849 69.88772-85.074607 126.727263-156.523893 126.727263L351.41 756.901988c-71.450309 0-141.66651-56.838519-156.523893-126.727263l-40.667212-191.108572c-45.249577-20.178575-76.813456-63.393819-80.471776-112.342648l-9.205663-122.597199c-3.945869-52.668547 26.01449-100.158141 73.031317-119.370715 10.809183-42.331108 48.989761-73.217558 94.198405-73.217558 42.002626 0 77.757968 26.221198 91.361801 64.052828l376.812041 0c13.604856-37.83163 49.359174-64.052828 91.342358-64.052828 45.208645 0 83.429131 30.886451 94.238314 73.217558 47.01785 19.212574 76.956719 66.681702 72.991408 119.370715L949.331905 326.723505zM854.949304 132.265652c-11.896958-2.774183-20.50808-13.08911-21.125133-25.296129-1.12973-22.830985-19.809161-40.72861-42.535769-40.72861-22.151509 0-40.359196 16.808828-42.332131 39.105646-1.233084 14.117532-13.068643 24.925692-27.248597 24.925692L301.351907 130.272251c-14.178931 0-25.995047-10.80816-27.248597-24.925692-1.972934-22.296819-20.159132-39.105646-42.331108-39.105646-22.707165 0-41.385573 17.877159-42.516326 40.72861-0.596588 12.20702-9.227152 22.521946-21.104667 25.296129-31.358195 7.274684-51.517327 35.139312-49.071625 67.771523l9.205663 122.576733c2.384303 31.851429 26.406416 60.763922 58.44204 70.278623 10.43977 3.123131 18.041912 12.123109 19.357883 22.974247 0.164752 1.561565 0.287549 3.14462 0.410346 4.685719 0.062422 0.801249 0.062422 1.622964 0.205685 2.363837l41.674145 195.875133c9.617032 45.229111 56.797587 83.409688 103.034655 83.409688l320.260048 0c46.215578 0 93.397157-38.180578 103.034655-83.409688l41.652655-195.85569c0.165776-0.821715 0.165776-1.622964 0.227174-2.424212 0.102331-1.520633 0.226151-3.042289 0.410346-4.583388 1.274016-10.850116 8.898671-19.911492 19.379373-23.035646 32.015158-9.514701 56.037271-38.427194 58.420551-70.278623l9.187243-122.576733C906.446165 167.42543 886.266567 139.540336 854.949304 132.265652zM300.858674 413.256324l421.342234 0c10.151197 0 18.885116 3.759627 24.248264 10.233062 5.794983 6.67912 8.137331 15.823384 6.616698 25.749454-0.122797 0.656963-0.245593 1.314948-0.390903 1.971911l-33.103956 143.846152c-4.152577 22.685675-26.591635 41.632189-49.689702 41.632189L353.218182 636.689093c-23.097044 0-45.578058-18.946514-49.728588-41.632189l-33.084513-143.846152c-0.164752-0.656963-0.287549-1.314948-0.38988-1.971911-1.541099-9.925047 0.801249-19.069311 6.26775-25.358551C281.994024 417.016974 290.707476 413.256324 300.858674 413.256324zM356.608396 581.986213l309.863257 0 26.220175-114.028033L330.367755 467.95818 356.608396 581.986213zM267.917424 319.571618c-34.131355 0-61.811788-27.679409-61.811788-61.811788 0-34.151821 27.680433-61.811788 61.811788-61.811788 34.132378 0 61.792345 27.659967 61.792345 61.811788C329.709769 291.892209 302.049802 319.571618 267.917424 319.571618zM755.162624 319.571618c-34.132378 0-61.811788-27.679409-61.811788-61.811788 0-34.151821 27.679409-61.811788 61.811788-61.811788 34.151821 0 61.810764 27.659967 61.810764 61.811788C816.973388 291.892209 789.314445 319.571618 755.162624 319.571618z"  horiz-adv-x="1024" />

    
    <glyph glyph-name="yule" unicode="&#58937;" d="M903.966695 195.752592 602.093413 570.021717c0.403183 5.686513 0.868787 11.330046 0.868787 17.141402 0 135.12656-109.933785 245.060345-245.071601 245.060345-135.147026 0-245.081835-109.934808-245.081835-245.060345 0-135.136793 109.934808-245.070578 245.081835-245.070578 5.78168 0 11.455913 0.466628 17.132192 0.847298l374.235356-301.883515c5.028527-4.02978 11.085476-6.024204 17.119913-6.024204 7.011694 0 14.002922 2.671852 19.285229 7.976672l21.341051 21.340027c0.040932-8.228405-1.01819-16.927531-4.158716-25.454742-7.021927-18.96698-23.557532-34.07098-49.143257-44.804439-30.124088-12.68695-76.985372 9.289574-131.244136 34.70543-99.908454 46.840818-236.712213 110.995977-383.123794-3.734044-11.860119-9.29162-13.928221-26.476001-4.647857-38.311561 9.29162-11.837606 26.435069-13.916964 38.293141-4.626367 119.989815 94.065376 229.604328 42.642193 326.332347-2.714831 47.416939-22.234397 92.857874-43.532469 134.733611-43.532469 14.023388 0 27.665083 2.376117 40.828894 7.933693 40.030715 16.844643 66.655096 42.472324 79.118965 76.203566 13.035898 35.217083 6.576789 70.261227 0.044002 91.3925l47.985898 47.987944C911.876851 169.235658 912.726196 184.935222 903.966695 195.752592zM167.350984 587.163119c0 105.054661 85.473697 190.517101 190.539614 190.517101 105.055684 0 190.529381-85.46244 190.529381-190.517101s-85.473697-190.548824-190.529381-190.548824C252.824681 396.614296 167.350984 482.108458 167.350984 587.163119zM764.427638 98.888474 443.481975 357.790058c66.295915 24.865317 118.916367 77.476559 143.749962 143.752008l258.902608-320.93543-38.642089-38.651298c-3.53143-2.249227-6.417153-5.133927-8.528234-8.529257L764.427638 98.888474zM600.172667 380.10939c-10.660804 10.649548-27.918863 10.649548-38.568411 0-10.648524-10.648524-10.648524-27.918863 0-38.568411l59.093886-59.104119c5.325285-5.303796 12.304234-7.977695 19.284205-7.977695 6.970762 0 13.948687 2.673899 19.273972 7.977695 10.660804 10.649548 10.660804 27.91784 0 38.567387L600.172667 380.10939z"  horiz-adv-x="1024" />

    
    <glyph glyph-name="yinhangqiashezhi" unicode="&#58887;" d="M896-32.256H128a128 128 0 0 0-128 128.064V672.192a128 128 0 0 0 128 128.064h768a128 128 0 0 0 128-128.064v-576.384a128 128 0 0 0-128-128.064z m-768 64h768a64 64 0 0 1 64.064 64.064V544.128H63.936v-448.32A64 64 0 0 1 128 31.744zM896 736.256H128A64 64 0 0 1 63.936 672.192v-64.064h896.128V672.192A64 64 0 0 1 896 736.256zM159.936 351.936H480a32 32 0 0 0 0-64H159.936a32 32 0 0 0 0 64z m0-128H416a32.064 32.064 0 0 0 0-64.064H159.936a32 32 0 0 0 0 64.064z m448.064 128h63.936a32 32 0 1 0 0-64H608a32 32 0 0 0 0 64z m0 0"  horiz-adv-x="1024" />

    
    <glyph glyph-name="A-zhufangguihua" unicode="&#59038;" d="M930.380274 459.967182L604.265892 798.374542c-24.269753 25.189705-56.704466 39.051411-91.381244 39.051411-34.655288 0-67.11149-13.861706-91.382267-39.051411l-34.139541-35.416628c-5.203512 5.024433-12.246929 8.16496-20.052708 8.16496L191.052802 771.122875c-15.97074 0-28.912493-12.942777-28.912493-28.891004l0-212.998115-66.729797-69.26555c-36.875862-38.244023-31.962969-68.457138-25.750477-83.059718 6.189979-14.601556 24.538883-39.096437 77.676104-39.096437l18.011212 0 0-376.404766c0-15.947204 12.942777-28.888957 28.889981-28.888957l637.291564 0c15.969717 0 28.889981 12.941753 28.889981 28.888957L860.418876 337.811028l18.012236 0c53.138244 0 71.485101 24.49488 77.69964 39.096437C962.344267 391.510044 967.234647 421.746696 930.380274 459.967182zM219.943806 713.340867l118.477368 0 0-1.189082-118.477368-122.940007L219.943806 713.340867zM613.86655-9.70171l-86.312808 0L527.553743 194.704726l86.312808 0L613.86655-9.70171zM802.639938-9.70171L671.646512-9.70171 671.646512 223.596753c0 15.948227-12.920264 28.888957-28.888957 28.888957L498.640226 252.485711c-15.947204 0-28.912493-12.94073-28.912493-28.888957l0-233.298464L223.128335-9.70171 223.128335 337.811028l579.511603 0L802.639938-9.70171zM878.432135 395.593036L147.336138 395.593036c-13.750165 0-21.151739 2.534729-23.978111 4.149507 0.807389 3.118014 4.105504 10.227945 13.660114 20.142759l326.115406 338.384847c26.51284 27.566846 72.966848 27.566846 99.500155 0l326.138942-338.384847c9.55461-9.914814 12.82919-17.024745 13.636578-20.142759C899.60741 398.127765 892.205836 395.593036 878.432135 395.593036z"  horiz-adv-x="1024" />

    
    <glyph glyph-name="lvhang" unicode="&#58999;" d="M729.472 729.472l32-32c17.6 17.6 46.4 17.6 64 0s17.6-46.4 0-64l32-32c35.2 35.2 35.2 92.8 0 128-33.6 35.2-91.2 35.2-128 0zM636.768 792.128l-67.232-91.264-408.288 88.064c-19.264 5.056-33.344 8.96-47.744 10.56-32.032 4.8-59.52-0.96-83.52-24.96-25.632-25.632-35.232-62.432-27.232-96.064l1.6-3.2c4.8-17.6 12.8-33.632 25.632-46.432s30.432-24 46.432-28.832c89.664-57.632 224.128-132.896 291.392-169.696l-96.064-128.096H169.248c-46.432 3.2-67.232-4.8-92.864-30.432-40.032-40.032-40.032-105.664 0-145.696 14.4-14.4 30.432-24 48.032-27.232h1.6c49.632-4.8 86.464-4.8 110.464-8l1.6-1.6c1.6-19.2 1.6-46.432 4.8-78.464-1.6-28.832 8-57.632 28.832-78.464 14.4-14.4 33.632-24 51.232-27.232 32.032-6.4 67.232 3.2 92.864 28.832 27.232 27.232 28.832 65.632 28.832 104.064l1.6 96.064 120.064 96.064C604.736 161.28 678.368 29.984 732.8-56.48c6.4-14.4 14.4-28.832 27.232-41.632 12.8-12.8 28.832-22.4 46.432-25.632l1.6-1.6 1.6 1.6c33.632-8 70.432 1.6 96.064 27.232 25.632 25.632 36.832 62.432 30.432 94.464L816.096 428.64l102.464 81.664c24.448 18.144 24 12.8 36.832 25.632 80.064 80.064 96.064 225.76 16 305.792s-225.76 64.032-305.792-16M69.984 667.264c-17.6 17.6-17.6 49.632 0 67.232 11.2 11.2 27.232 14.4 43.232 11.2h1.6l421.056-89.664-136.096-182.528-329.792 193.76z m806.912-683.648c3.2-14.4-1.6-32.032-12.8-43.232-17.6-17.6-46.432-17.6-64.032 0-6.4 6.4-11.2 12.8-12.8 20.8L614.368 268.576 763.264 382.24l113.632-398.624zM902.528 566.4l-515.52-401.856-3.2-169.696c-1.6-8-4.8-14.4-11.2-20.8-17.6-17.6-46.432-17.6-64.032 0-6.4 6.4-9.6 12.8-11.2 20.8l-1.6 108.864c0 3.2 1.6 6.4 1.6 9.6v1.6c0 9.6-3.2 19.2-9.6 25.632-3.2 3.2-6.4 4.8-11.2 6.4h-1.6c-1.6 0-3.2 1.6-4.8 1.6-3.2 0-4.8 1.6-8 1.6h-9.6l-120.064 3.2c-6.4 1.6-12.8 8-19.2 12.8-17.6 17.6-17.6 46.432 0 64.032 6.4 6.4 12.8 11.2 20.8 12.8h166.496L694.4 769.728c3.2 4.8 8 11.2 12.8 16 57.632 57.632 166.496 73.632 224.128 17.6 57.632-57.632 40.032-166.496-17.6-224.128-3.2-6.4-8-8-11.2-12.8z"  horiz-adv-x="1025" />

    
    <glyph glyph-name="changbei" unicode="&#59007;" d="M875.32 584.153c0 14.709-11.913 26.641-26.623 26.641h-110.03C706.929 739.553 617.119 832.738 511.357 832.738c-105.782 0-195.592-93.185-227.33-221.945h-110.03c-14.71 0-26.622-11.932-26.622-26.641 0-14.689 11.912-26.623 26.621-26.623h100.687c-1.803-15.973-3.025-32.194-3.025-48.83 0-50.51 8.846-98.179 24.156-140.836-76.052-18.148-132.818-86.494-132.818-167.997v-237.13c0-14.71 11.912-26.642 26.621-26.642h643.46c14.71 0 26.642 11.933 26.642 26.643v237.13c0 81.502-56.786 149.848-132.839 167.996 15.31 42.657 24.157 90.328 24.157 140.836 0 16.636-1.223 32.857-3.026 48.83h100.687c14.709 0.001 26.621 11.934 26.621 26.624zM697.772 508.7c0-49.596-9.366-95.962-25.463-135.968-2.817-6.982-6.05-13.528-9.239-20.116-21.465 68.864-77.836 113.2-151.713 113.2-73.9 0-130.271-44.336-151.734-113.2-3.19 6.588-6.422 13.134-9.24 20.116-16.075 40.006-25.46 86.372-25.46 135.968 0 16.697 1.201 32.96 3.19 48.83h366.469c2.009-15.87 3.19-32.133 3.19-48.83z m-78.416-220.453c0-60.204-66.378-149.308-108-197.187-41.621 47.879-108.02 136.983-108.02 197.187 0 75.494 42.409 124.283 108.02 124.283 65.612 0 108-48.79 108-124.283z m-108 491.227c77.918 0 144.732-69.858 172.556-168.68H338.78c27.825 98.822 94.638 168.68 172.577 168.68z m295.098-579.608v-210.508H216.26V199.866c0 59.874 44.253 109.45 101.743 118.11 9.882-18.23 21.152-34.93 33.562-49.991 14.233-101.371 126.997-220.868 140.63-234.976a26.616 26.616 0 0 1 19.163-8.141c7.23 0 14.129 2.94 19.143 8.141 13.631 14.108 126.416 133.626 140.65 234.996 12.386 15.04 23.68 31.74 33.54 49.97 57.49-8.659 101.764-58.235 101.764-118.109zM392.026 465.339c16.346 0 29.605 13.24 29.605 29.605 0 16.326-13.26 29.585-29.605 29.585-16.346 0-29.585-13.26-29.585-29.585 0-16.367 13.239-29.605 29.585-29.605zM630.668 465.339c16.348 0 29.607 13.24 29.607 29.605 0 16.326-13.26 29.585-29.607 29.585-16.324 0-29.584-13.26-29.584-29.585 0-16.367 13.26-29.605 29.584-29.605zM484.715 322.265v-11.809c0-14.709 11.912-26.643 26.643-26.643 14.709 0 26.622 11.934 26.622 26.643v11.809c0 14.709-11.913 26.642-26.622 26.642-14.732 0-26.643-11.933-26.643-26.642z"  horiz-adv-x="1024" />

    
    <glyph glyph-name="haizi" unicode="&#58959;" d="M365.966019 529.168264c-9.894348-5.844102-17.811668-7.791453-23.747867-17.531282-15.832594-25.322735 3.958148-68.175729 37.601386-62.331627 43.538609 9.740852 39.581484 81.811284-13.853519 79.862909z m490.795049 29.219485l0.001023-0.001023-0.002046 0.001023h0.001023C799.370986 702.529637 694.483124 811.612031 490.6436 807.715281c-9.894348-1.947352-21.768793-1.947352-31.664164-3.895727-25.726941-3.895727-51.455929-9.738805-75.202773-19.478633-89.055269-33.113165-154.363693-91.550089-195.923228-173.36035-7.915273-15.582907-19.789719-35.062564-21.768792-54.541197-47.496757-11.686157-73.223698-23.37436-91.035366-64.280002-29.68509-70.123081 13.853519-153.881716 83.118046-155.830091l23.747867-52.592822c41.558511-66.227354 114.783233-111.028723 197.901278-136.351458 100.929714-29.219485 241.439888-13.634532 320.600809 21.427008 29.684066 13.634532 55.411007 33.113165 79.159898 50.645471 33.643238 25.321712 73.224722 66.226331 81.139995 114.924449 47.496757 7.79043 75.202773 33.113165 89.055268 75.967182 23.74889 77.913511-25.725918 146.089239-93.01137 148.038638z m25.728988-175.312818v0.00307c-11.874445-7.79043-31.665187-7.79043-49.474808-9.738805-25.726941-105.185644-110.825085-163.622568-215.712947-190.893678-191.966103-48.696072-403.719878 38.957267-431.425893 190.892655-17.811668 1.948375-39.581484 1.948375-51.455929 9.738805-41.558511 25.322735-39.58046 103.237269 1.980097 128.560004 13.853519 7.791453 33.643238 7.791453 53.43398 7.791454 7.915273 21.427008 12.287861 41.529859 21.768793 62.33265 29.878494 65.555042 93.102445 115.248837 159.350264 153.606447 1.299599 0.75213 2.594081 1.487887 3.883447 2.207271v-94.181009c0-9.654894 8.025791-17.553795 17.834181-17.553795 9.809413 0 17.83418 7.898901 17.83418 17.553795V750.389668c0 1.111311-0.11768 2.194992-0.321318 3.25002 24.448832 8.54563 50.52779 12.474103 84.805478 14.308891a17.136286 17.136286 0 0 1-0.118703-1.955538V658.999215c0-9.653871 8.025791-17.553795 17.83418-17.553795s17.83418 7.899924 17.83418 17.553795V765.994064c0 0.74906-0.064468 1.482771-0.157589 2.207271 20.25737-1.803066 45.040822-7.550976 70.301136-15.842826a17.152658 17.152658 0 0 1-0.12075-1.969865V643.393795c0-9.654894 8.025791-17.553795 17.83418-17.553795 9.809413 0 17.83418 7.898901 17.834181 17.553795v95.720062c23.068392-9.646708 44.89449-20.918425 62.209854-32.69054 71.369468-48.516993 94.991468-101.289917 128.635728-188.94428 33.642215-5.844102 55.411007-1.949398 71.243601-21.427008 27.709085-33.114189 19.792788-93.498464-15.829523-112.977098z m-342.370625 1.951445H427.316296l-5.937223-5.843078c-7.916297-17.532305 9.895371-35.063587 15.832593-42.854017 37.600363-46.749744 114.783233-40.906665 148.426471 5.843078 7.915273 9.739828 15.830547 25.322735 11.873422 42.854017-15.833617 1.948375-39.582507 0-57.392128 0z m96.972589 144.141888c-7.916297-5.844102-15.832594-7.791453-21.769816-15.582907-15.83157-25.322735 0-70.123081 35.623335-62.331627 41.558511 7.792477 41.558511 79.862909-13.853519 77.914534z m164.313299-343.487052c-0.022513 0.221034-0.035816 0.437975-0.058328 0.661056l-0.115634-0.081865c-2.236947 8.017604-9.410324 14.142092-18.314111 14.71412-11.233855 0.721431-20.933775-7.6574-21.666462-18.714223a19.684318 19.684318 0 0 1 2.062985-10.156315l-0.023536 0.007164s1.803066-4.195555 2.348488-11.69025c6.562463-59.253522-75.182306-138.121777-152.297638-75.369572-15.813151-28.745694-25.726941-52.592822-53.432957-70.124104-69.26555-40.905642-134.572952 15.582907-152.383596 68.176753-15.999392-7.942903-34.684964-22.804379-61.350276-23.375384-50.597375-1.082658-85.23629 40.748053-90.440825 86.22071-0.085958 0.798179-0.248663 2.385327-0.393973 4.174066a98.020454 98.020454 0 0 0-0.26299 5.969969c0.010233 0.411369 0.030699 0.786922 0.067538 1.086751 0.550539 4.412496 2.095731 8.324596 3.203972 10.686387 0.426719 0.721431 0.818645 1.464351 1.152243 2.24104l0.066515 0.112564-0.010233 0.004093a19.649526 19.649526 0 0 1 1.511423 6.358825c0.732687 11.057847-7.780197 20.605294-19.013029 21.325701-11.233855 0.721431-20.934798-7.6574-21.666462-18.714224v-0.005116c-19.374256-99.380428 74.016761-192.643532 169.325453-144.782478 21.768793-25.321712 35.622312-48.696072 71.243601-62.331627 69.266573-27.270087 150.406568 11.686157 168.216189 62.331627 11.874445-3.894703 23.747867-9.738805 39.580461-11.686157 21.768793-3.895727 39.581484 3.895727 53.432956 7.792477 55.734372 22.698978 85.333504 74.79652 79.745229 149.146878a19.759019 19.759019 0 0 1-0.527003 6.021134z"  horiz-adv-x="1024" />

    
    <glyph glyph-name="wandacaifu-wode-changjianwenti-huoqichanpin-weixuanzhong" unicode="&#58904;" d="M115.23712 556.16A1161.6 1161.6 0 0 0 230.43712 704c-16.64 29.44-64 101.76-28.16 160.64S479.39712 878.72 535.07712 851.2C875.55712 896 1088.03712 812.16 1216.03712 583.68a424.32 424.32 0 0 0-30.72-470.4 1148.16 1148.16 0 0 1-109.44-139.52c-17.92-92.8-44.8-95.36-140.8-98.56a176.64 176.64 0 0 0-139.52 48H597.79712c-36.48-39.04-80-43.52-177.92-48.64s-108.8 87.04-108.8 139.52a640 640 0 0 0-198.4 230.4A567.04 567.04 0 0 0 24.35712 288c-32.64 23.04-23.04 64-23.04 172.16s113.92 96 113.92 96zM256.03712 820.48a117.12 117.12 0 0 1 13.44-52.48l8.32-14.72 7.68-13.44 26.24-44.8-39.04-34.56a378.88 378.88 0 0 1-37.76-44.16l-12.8-16.64c-12.8-16.64-25.6-35.2-37.76-53.12l-16-24.32-21.12-32h-37.76a78.08 78.08 0 0 1-28.8-4.48c-11.52-4.48-15.36-9.6-15.36-28.16v-53.76a452.48 452.48 0 0 1 0-67.84c0-3.2 0 0-3.84 0a256 256 0 0 1 25.6-15.36c18.56-10.24 37.76-18.56 49.92-23.68l22.4-9.6 10.88-22.4c3.2-7.04 10.88-20.48 21.76-38.4a640 640 0 0 1 64-88.32A434.56 434.56 0 0 1 345.63712 64l29.44-19.2v-35.2c0-55.68 10.88-77.44 41.6-75.52 96.64 5.12 117.12 10.24 134.4 28.8l18.56 19.84h256l19.2-23.04a74.88 74.88 0 0 1 14.08-9.6 138.88 138.88 0 0 1 74.24-16c81.28 0 70.4-3.84 80 46.72v7.68l3.2 7.04a1029.76 1029.76 0 0 0 119.68 155.52 339.2 339.2 0 0 1 64 137.6 360.96 360.96 0 0 1-40.32 256c-111.36 201.6-298.24 275.2-616.32 236.8H524.83712l-17.28 8.32A617.6 617.6 0 0 1 354.59712 832a396.16 396.16 0 0 1-85.12 0L256.03712 827.52a32 32 0 0 1 0-7.04z m128-361.6a56.96 56.96 0 1 0 56.96 56.96 56.96 56.96 0 0 0-62.72-56.96z"  horiz-adv-x="1272" />

    
    <glyph glyph-name="huafei" unicode="&#58929;" d="M732.554 890.092h-443.077c-61.046 0-110.277-53.169-110.277-116.185v-781.785c0-64.985 49.231-116.185 110.277-116.185h441.108c61.046 0 110.277 53.169 110.277 116.185v781.785c1.969 64.985-47.262 116.185-108.308 116.185zM326.892 852.677h368.246c47.262 0 88.615-33.477 104.369-78.769h-576.985c15.754 45.292 57.108 78.769 104.369 78.769zM695.138-84.677h-368.246c-61.046 0-110.277 53.169-110.277 116.185h588.8c0-63.015-49.231-116.185-110.277-116.185zM805.415 72.862h-588.8v661.662h588.8v-661.662zM569.108-5.908h-116.185v-39.385h116.185v39.385zM492.308 228.431h39.385v78.769h116.185v39.385h-116.185v39.385h116.185v39.385h-88.615l88.615 88.615v25.6l-1.969 1.969h-25.6l-108.308-110.277-108.308 108.308h-25.6l-3.938-1.969v-25.6l88.615-88.615h-88.615v-39.385h118.154v-39.385h-118.154v-39.385h118.154v-76.8z"  horiz-adv-x="1024" />

    
    <glyph glyph-name="shijian" unicode="&#58888;" d="M512-64a447.488 447.488 0 1 0 437.184 349.696 34.368 34.368 0 1 0-67.072 15.104 378.752 378.752 0 1 1-264.704-281.216 34.368 34.368 0 1 0 19.2-65.984A448 448 0 0 0 512-64m0 0z m206.272 213.76a34.24 34.24 0 0 0-22.72 8.64L469.44 358.4a34.368 34.368 0 0 0-11.584 25.6V623.808a34.368 34.368 0 0 0 68.736 0v-224l214.464-189.568a34.368 34.368 0 0 0-22.784-60.096m0 0z m56.576-75.328a54.4 54.4 0 1 1 15.936 38.4 55.04 55.04 0 0 1-15.936-38.4m0 0z"  horiz-adv-x="1024" />

    
    <glyph glyph-name="yanjing" unicode="&#58881;" d="M512 549.888c-91.136 0-165.376-74.24-165.376-165.376 0-91.136 74.24-165.376 165.376-165.376 91.136 0 165.376 74.24 165.376 165.376 0 91.136-74.24 165.376-165.376 165.376z m0-269.312c-57.344 0-103.936 46.592-103.936 103.936 0 57.344 46.592 103.936 103.936 103.936 57.344 0 103.936-46.592 103.936-103.936 0-57.344-46.592-103.936-103.936-103.936z m437.76 119.296c-73.728 139.776-247.296 281.088-437.76 281.088s-364.032-141.312-437.248-281.088l-8.704-15.872 8.704-15.872c73.216-139.776 246.784-281.088 437.248-281.088s364.032 141.824 437.76 281.088l8.192 15.872-8.192 15.872z m-437.76-247.296c-156.672 0-305.664 116.736-373.248 231.424 68.096 115.2 216.576 231.424 373.248 231.424 156.672 0 305.664-116.224 373.248-231.424-67.584-114.688-216.576-231.424-373.248-231.424z"  horiz-adv-x="1024" />

    
    <glyph glyph-name="hongbao" unicode="&#59546;" d="M170.667 768v-768h682.667v768h-682.667zM128 768.064c0 23.531 18.987 42.603 42.667 42.603h682.667c23.573 0 42.667-19.029 42.667-42.603v-768.128c0-23.531-18.987-42.603-42.667-42.603h-682.667c-23.573 0-42.667 19.029-42.667 42.603v768.128zM170.667 391.616v-55.979c15.445-10.667 38.464-23.211 69.76-35.499 42.304-16.619 91.648-29.205 148.459-36.608 15.835-54.023 64.946-92.805 123.115-92.805 58.169 0 107.28 38.782 122.887 91.9 57.039 8.308 106.383 20.895 148.708 37.514 31.275 12.288 54.293 24.811 69.739 35.499v55.979l-14.421-13.227c-1.984-1.835-7.040-5.739-15.424-11.051-14.613-9.259-33.024-18.645-55.509-27.477-36.587-14.379-79.211-25.579-128.256-32.64-4.55 66.974-59.993 119.579-127.723 119.579-67.729 0-123.172-52.604-127.701-119.185-49.067 6.667-91.691 17.867-128.277 32.246-22.485 8.832-40.896 18.219-55.509 27.477-16.501 10.142-30.096 23.435-40.284 39.144l10.438-14.866zM512 213.333c-47.128 0-85.333 38.205-85.333 85.333s38.205 85.333 85.333 85.333c47.128 0 85.333-38.205 85.333-85.333 0-47.128-38.205-85.333-85.333-85.333z"  horiz-adv-x="1024" />

    
    <glyph glyph-name="queding" unicode="&#58880;" d="M512.2 831.8c-247.4 0-448-200.5-448-447.8s200.6-447.8 448-447.8 448 200.5 448 447.8-200.6 447.8-448 447.8z m-53.8-591.1L333 366.1l31.4 31.3 94.1-94 237.4 237.3 31.4-31.3-268.9-268.7z"  horiz-adv-x="1024" />

    
    <glyph glyph-name="weixiu" unicode="&#58987;" d="M842.4-106.4h-8.8c-26.4 2.4-54.4 24-67.2 36.8l-18.4 18.4 0.8 0.8-3.2 3.2c-36.8 40-101.6 117.6-192 228.8l-3.2 4-3.2-4c-88-115.2-161.6-200.8-220-255.2-14.4-15.2-33.6-25.6-52.8-28.8-5.6-0.8-11.2-1.6-16.8-1.6-19.2 0-38.4 5.6-57.6 16.8-32.8 19.2-89.6 84-96 91.2-16.8 18.4-40 64-6.4 106.4C128 146.4 268 284.8 381.6 392l2.4 2.4-19.2 24.8-2.4-0.8c-23.2-8-48-12-73.6-12h-9.6c-60 2.4-115.2 28-156.8 72.8-40 44-61.6 100.8-59.2 160.8 1.6 35.2 10.4 68 27.2 98.4l14.4 27.2 155.2-168 72.8 67.2L179.2 831.2l31.2 11.2C235.2 852 261.6 856 288 856h9.6c124-4.8 220.8-110.4 216-234.4-1.6-32-8.8-62.4-23.2-91.2l-1.6-2.4 26.4-26.4 3.2 2.4c17.6 15.2 32 28 42.4 36 22.4 16.8 40 26.4 56.8 29.6 5.6 1.6 11.2 1.6 16.8 1.6 16 0 30.4-5.6 44-16l3.2-2.4 241.6 261.6 32.8-30.4-241.6-259.2 2.4-2.4c15.2-15.2 24.8-28 29.6-40.8 10.4-28.8-4-49.6-11.2-60-0.8-0.8-2.4-4-4-6.4-8.8-14.4-25.6-43.2-53.6-75.2l-3.2-4 2.4-2.4c120-128.8 201.6-224 242.4-284l0.8-0.8c14.4-20 21.6-44 19.2-67.2-2.4-25.6-14.4-48.8-34.4-65.6-18.4-15.2-39.2-22.4-62.4-22.4z m-44.8 69.6l3.2-3.2 7.2-6.4c8.8-7.2 21.6-15.2 30.4-16h4.8c12 0 24 4 33.6 12 10.4 8.8 17.6 21.6 18.4 35.2 0.8 10.4-1.6 21.6-8 32l-4 5.6c-82.4 123.2-339.2 386.4-416 464.8l-3.2 3.2-3.2-3.2c-14.4-17.6-32-32.8-51.2-45.6l-4-2.4 392-476zM408.8 356.8c-127.2-120-251.2-243.2-276-274.4-8-9.6-9.6-20-5.6-31.2 3.2-9.6 8.8-16.8 9.6-17.6l0.8-0.8c22.4-25.6 64.8-70.4 85.6-82.4 12-7.2 24-10.4 35.2-10.4 19.2 0 32 10.4 37.6 16.8l1.6 1.6c58.4 53.6 132.8 141.6 223.2 260l1.6 2.4-1.6 2.4c-35.2 44-71.2 88.8-106.4 132.8l-2.4 3.2-3.2-2.4zM634.4 528c-11.2 0-26.4-7.2-45.6-22.4-9.6-8-22.4-18.4-38.4-32.8l-3.2-2.4 3.2-3.2c30.4-31.2 60.8-63.2 91.2-95.2l3.2-3.2 3.2 3.2c23.2 27.2 38.4 51.2 45.6 64.8 2.4 4 4 7.2 5.6 9.6 8 11.2 8 14.4 6.4 19.2-4.8 12-23.2 31.2-54.4 56.8-4.8 1.6-8.8 5.6-16.8 5.6z m-520 153.6c-4-13.6-6.4-28-7.2-43.2-1.6-48 15.2-94.4 48-129.6s77.6-56 125.6-58.4h7.2c97.6 0 176.8 76 180.8 173.6 4 100-73.6 184-173.6 188H288c-7.2 0-14.4-0.8-21.6-1.6l-8-0.8L372 688c12.8-14.4 12-36.8-1.6-49.6l-86.4-80c-6.4-6.4-15.2-9.6-24-9.6-9.6 0-19.2 4-25.6 11.2L116.8 688l-2.4-6.4z"  horiz-adv-x="1024" />

    
    <glyph glyph-name="wode1" unicode="&#58950;" d="M920.863015-24.520207c-7.653307 114.331955-64.162322 220.714867-155.013493 291.865347l-5.462408 3.774977-0.051166-0.070609c-5.160533 3.155876-11.059893 4.847401-17.125029 4.847402-20.828374 0-33.263591-10.050913-33.263591-26.874067 0-9.7869 4.539386-19.006889 12.135388-25.254174l-0.085958-0.14224 4.821819-3.461845c76.202543-54.468542 119.100562-137.087215 127.507022-245.591441l0.084935-1.181918a35.890418 35.890418 0 0 1-0.12075-2.764974c0-18.332531 14.860453-33.203216 33.203216-33.203216 17.7165 0 32.193213 13.882172 33.143864 31.373545h0.661056l-0.434905 6.683213z m-106.929358 556.085054c0 165.06543-135.89711 299.370275-302.964126 299.370275-167.06497 0-302.960033-134.293589-302.960033-299.370275 0-88.934518 39.315424-171.901115 108.253516-229.087559C192.531991 236.445386 110.400413 110.46923 101.101629-28.609339l-0.384763-5.803169a2.873444 2.873444 0 0 1-0.026606-0.361227l-0.034792-0.52905h0.025582c0-0.294712-0.025583-0.572028-0.025582-0.848321 0-15.542998 12.600993-28.149107 28.149106-28.149106s28.148084 12.605086 28.148084 28.149106c0 0.289596-0.00921 0.562818-0.019443 0.848321h0.591471l0.445138 5.777587c10.205433 132.169205 93.973278 247.90616 213.716477 295.587112 35.746132-16.604166 90.320075-33.901111 139.272997-33.901111 45.349861 0 89.395006 10.000771 131.327024 29.936823l30.721699 17.823947 25.085328 16.464997c73.594135 57.3338 115.840308 143.063323 115.840308 235.178277zM510.958274 292.455027c-133.484154 0-242.077408 107.293655-242.077407 239.135403 0 131.837654 108.593254 239.090377 242.077407 239.090376 133.50155 0 242.108107-107.252723 242.108107-239.090376 0.010233-131.842771-108.597347-239.135402-242.108107-239.135403z"  horiz-adv-x="1024" />

    
    <glyph glyph-name="cuo" unicode="&#58980;" d="M1001.591512-31.575597L584.657825 384.679045 1000.912467 800.933687c21.050398 21.050398 21.050398 55.002653 0 75.374005-21.050398 21.050398-55.002653 21.050398-75.374005 0L509.28382 460.05305 93.029178 876.986737C71.97878 898.037135 38.026525 898.037135 17.655172 876.986737c-21.050398-21.050398-21.050398-55.002653 0-75.374005l416.254642-416.254642-416.933687-416.933687c-21.050398-21.050398-21.050398-55.002653 0-75.374005 21.050398-21.050398 55.002653-21.050398 75.374006 0L509.28382 309.30504l416.933687-416.933687c21.050398-21.050398 55.002653-21.050398 75.374005 0 21.050398 21.050398 21.050398 55.002653 0 76.05305z"  horiz-adv-x="1024" />

    
    <glyph glyph-name="kaiguanguan-copy" unicode="&#58882;" d="M1021.76 383.876c0 169.952-137.77 307.727-307.724 307.727h-404.235c-169.955 0-307.724-137.775-307.724-307.727s137.77-307.724 307.724-307.724h404.235c169.955 0 307.724 137.772 307.724 307.724zM993.655 383.22900000000004c0-154.236-125.03-279.267-279.269-279.268-154.23 0-279.264 125.03-279.264 279.267 0 154.24 125.035 279.269 279.263 279.269 154.238 0 279.269-125.031 279.269-279.269z"  horiz-adv-x="1024" />

    
    <glyph glyph-name="meizhuang" unicode="&#58891;" d="M319.1-67.1H179.2c-31.5 0-58.4 11.1-80.5 33.2s-33.2 49-33.2 80.5V410.9c0 30.9 11.1 57.4 33.2 79.5s49 33.2 80.5 33.2h139.9c30.9 0 57.5-11.1 80-33.2s33.7-48.7 33.7-79.5v-364.3c0-31.5-11.2-58.4-33.7-80.5-22.5-22.1-49.2-33.2-80-33.2zM179.2 485.5c-20.8 0-38.4-7.4-52.8-22.1-14.4-14.8-21.6-32.2-21.6-52.3v-364.3c0-20.8 7.2-38.4 21.6-52.8 14.4-14.4 32-21.6 52.8-21.6h139.9c20.1 0 37.6 7.2 52.3 21.6 14.8 14.4 22.1 32 22.1 52.8V411c0 20.1-7.4 37.6-22.1 52.3-14.8 14.8-32.2 22.1-52.3 22.1H179.2z m159-2h-2c-5.4 0.7-9.7 3-13.1 7-3.4 4-5 8.7-5 14.1 7.4 106.7-10.1 187.5-52.3 242.6-17.5 22.1-36.9 37.9-58.4 47.3-29.5-17.5-47-67.4-52.3-150-3.4-47.7-2.7-93.9 2-138.9 0.7-5.4-0.7-10.2-4-14.6-3.4-4.4-7.7-6.7-13.1-7-5.4-0.3-10.2 1.2-14.6 4.5s-6.5 7.7-6.5 13.1c-5.4 47-6.4 95.3-3 144.9 7.4 106 35.2 168.4 83.5 187.2 4 1.3 8.1 1.7 12.1 1 4-1.4 8.9-3.2 14.6-5.5 5.7-2.4 15.6-8.6 29.7-18.6s27.2-22.5 39.3-37.2c22.1-27.5 38.6-61.4 49.3-101.7 13.4-48.3 17.8-105 13.1-170.1 0-4.7-2-8.9-6-12.6-4.2-3.7-8.6-5.5-13.3-5.5zM166.1 65.3c-4-3.7-8.7-5.5-14.1-5.5s-9.9 1.8-13.6 5.5c-3.7 3.7-5.5 8.2-5.5 13.6V377.8c0 5.4 1.8 10.1 5.5 14.1s8.2 6 13.6 6 10.1-2 14.1-6 6-8.7 6-14.1v-298.9c0-5.4-2-9.9-6-13.6z m641.1 418.2H582.8c-8.1 0-13.8 3.3-17.1 10.1L434.8 734.1c-6 10.1-4 18.4 6 25.2C514 808.2 598.7 832.7 695 832.7c96.3 0 181-24.5 254.1-73.5 10.1-6.7 12.1-15.1 6-25.2L824.3 493.5c-3.3-6.7-9-10-17.1-10z m-213.4 39.2h202.3l115.7 213.4c-63.8 38.2-136 57.4-216.9 57.4S541.7 774.4 478 736.1l115.8-213.4zM775-67.1H608.9c-20.1 0-37.4 6.7-51.8 20.1-14.4 13.4-21.6 29.5-21.6 48.3v1l42.3 461c0.7 16.1 6.5 30 17.6 41.8 11.1 11.7 24.3 17.6 39.8 17.6h114.7c15.4 0 28.7-5.9 39.8-17.6 11.1-11.7 16.6-25.7 16.6-41.8l43.3-461v-1c0-18.8-7.2-34.9-21.6-48.3-14.6-13.3-32.2-20.1-53-20.1z m19.1 429.8H589.8c-5.4 0-9.9 1.8-13.6 5.5-3.7 3.7-5.5 8.2-5.5 13.6s1.8 9.9 5.5 13.6c3.7 3.7 8.2 5.5 13.6 5.5h204.3c5.4 0 10.1-1.9 14.1-5.5 4-3.7 6-8.2 6-13.6s-2-9.9-6-13.6c-4-3.7-8.7-5.5-14.1-5.5zM574.7 0.4c0-8.1 3.4-14.8 10.1-20.1 6.7-5.4 14.8-8.1 24.2-8.1h166c9.4 0 17.6 2.7 24.7 8.1 7 5.4 10.6 12.1 10.6 20.1l-42.3 460v2c0 6-1.9 11.1-5.5 15.1-3.7 4-7.9 6-12.6 6H635.1c-4.7 0-8.9-2-12.6-6-3.7-4-5.5-9.1-5.5-15.1v-2l-42.3-460z m92.6 484.1c-10.7 0-17.1 5.4-19.1 16.1l-18.1 95.6c-0.7 4.7 0.5 9.4 3.5 14.1 3 4.7 7.2 7.5 12.6 8.6 5.4 1 10.2 0 14.6-3s7.2-7.2 8.6-12.6l17.1-95.6c0.7-4.7-0.5-9.4-3.5-14.1-3-4.7-7.2-7.4-12.6-8.1-0.7-0.7-1.8-1-3.1-1z m46.3 0c-1.4 0-2.7 0.3-4 1-5.4 0.7-9.6 3.3-12.6 8.1-3 4.7-3.9 9.4-2.5 14.1l17.1 95.6c1.3 5.4 4.2 9.6 8.6 12.6 4.4 3 9.2 4 14.6 3s9.6-3.9 12.6-8.6c3-4.7 3.9-9.4 2.5-14.1l-17.1-95.6c-2.1-10.8-8.5-16.1-19.2-16.1z"  horiz-adv-x="1024" />

    
    <glyph glyph-name="jiangjinguize" unicode="&#58927;" d="M796.97894844 540.9098624999999a588.58643344 588.58643344 0 0 1-68.04549094 64.55145375c-3.45874406 2.82346406-6.10574156 4.79988937-9.17625844 7.16454094 43.02253781 15.67022719 73.12772625 53.18700938 73.12772625 97.62127875 0 59.7868575-53.57523562 105.56227312-117.17377031 105.56227312a106.40931188 106.40931188 0 0 1-40.19907281-7.79982094 83.39807812 83.39807812 0 0 1-13.2702825-6.7057275c-2.25877125-0.98821219-6.98807438 0.14117344-8.29392656 1.83525188l-0.03529313-0.03529313a134.46748875 134.46748875 0 0 1-22.83476812 27.03467062C570.85474813 848.77335469 546.92588844 860.27897156 519.53828469 860.27897156c-27.35231063 0-51.31646437-11.50561687-71.53952812-30.14048157a133.62044906 133.62044906 0 0 1-22.3759547-26.4699778l-0.03529312 0.03529312c-1.870545-2.29406438-6.63514125-3.49403719-8.29392656-2.6469975a87.91562063 87.91562063 0 0 1-13.729095 6.95278032 106.93871156 106.93871156 0 0 1-40.19907375 7.79982093c-63.59853375 0-117.13847625-45.77541563-117.13847625-105.56227312 0-37.97559563 22.09360875-70.868955 55.33990125-89.43323251-3.56462345-2.71758469-7.12924781-5.43516844-10.623285-8.2233403a541.75221844 541.75221844 0 0 1-67.9043175-63.91617375C160.18186156 478.19366156 121.99450625 397.58375437 121.99450625 308.11522875c0-248.11192781 174.41950875-366.09744375 384.52054875-366.09744375 88.05679406 0 174.13716281 18.63486469 243.77085188 62.57502844 94.55076188 59.68097719 148.30246406 159.91396125 148.30246406 303.52241531 0 84.1392375-38.43440812 162.24331875-101.6094225 232.79463375z m-290.46389344-543.44629688c-184.90162031 0-332.462925 99.77417062-332.46292499 310.68695625 0 73.23360563 32.25808031 141.31438969 86.75094187 202.40709938a488.74167562 488.74167562 0 0 0 61.16329593 57.5986725 432.2018025 432.2018025 0 0 0 27.03467063 19.62307687c29.32873594 20.57599594 26.57585812 56.78692594-2.15289094 72.24539344l0.07058625 0.31764-0.17646656 0.10588032-0.35293313 0.17646656-0.98821218 0.49410561-1.37643938 0.70586626v-0.03529312l-0.74115937 0.38822625-0.56469282 0.21175969-0.10587937 0.07058625-0.03529313-0.03529313-2.99993156 1.23526594c-25.37588531 7.87040719-41.29316625 26.92879125-41.29316531 46.62245437 0 26.18763188 28.02288375 50.11649156 65.0808525 50.1164925a57.45749906 57.45749906 0 0 0 28.02288375-7.23512718l3.17639719-1.94113219c23.54063344-12.17619001 53.8575825-4.5175425 70.72778156 16.65843937l2.188185 3.21169125a82.58633156 82.58633156 0 0 0 14.57613469 17.11725188c11.50561687 10.623285 24.07003312 16.6937325 37.51678218 16.69373344 13.37616187 0 25.94057813-6.07044844 37.48148907-16.69373344 7.30571437-6.7057275 12.38794969-13.41145594 14.54084062-17.11725188l1.76466563-2.64699843c16.41138656-21.74067563 47.04597469-29.01109594 70.65719531-17.50547907l3.70579687 2.22347907a58.057485 58.057485 0 0 0 27.98758969 7.23512718c37.09326281 0 65.11614656-23.96415375 65.11614656-50.15178562 0-19.65837001-15.95257313-38.716755-41.29316625-46.58716125l-3.70579687-1.48231875a81.3157725 81.3157725 0 0 0-13.97614875-5.78810156c-36.49327687-11.96443031-42.70489781-51.45763781-13.12910906-73.5159525 2.85875719-1.94113219 5.64692906-3.91755655 8.4351-5.89398188a531.69362719 531.69362719 0 0 0 82.092225-74.29240594c54.88108781-61.23388313 87.28034156-127.09118812 87.28034156-194.53669218 0-221.81841655-140.82028313-310.68695625-340.01569219-310.68695626z m108.4916175 326.32189032c11.96443031 0 21.67008844 10.51740469 21.67008844 23.54063343 0 12.9526425-9.70565906 23.50534031-21.67008844 23.50534125h-88.62148687l82.26869156 89.15088563a24.91707281 24.91707281 0 0 1 0 33.2462925 20.57599594 20.57599594 0 0 1-30.70517438 0l-71.39835468-77.39821594-71.43364688 77.39821594a20.57599594 20.57599594 0 0 1-30.70517531 0 24.98765906 24.98765906 0 0 1 0-33.2462925l82.30398562-89.15088563H398.05873156c-11.96443031 0-21.7053825-10.55269781-21.7053825-23.50534125 0-13.02322969 9.74095219-23.54063344 21.7053825-23.54063343h86.786235v-23.50534032H398.05873156c-11.96443031 0-21.7053825-10.51740469-21.7053825-23.50534125 0-12.98793562 9.74095219-23.50534031 21.7053825-23.50534031h86.786235v-67.72785095c0-9.91741875 9.70565906-17.96429156 21.67008844-17.96429155 11.99972345 0 21.7053825 8.04687375 21.7053825 17.96429155v67.72785095h86.786235c11.96443031 0 21.67008844 10.51740469 21.67008844 23.50534031 0 12.98793562-9.70565906 23.50534031-21.67008844 23.50534125h-86.786235v23.50534032h86.786235z"  horiz-adv-x="1024" />

    
    <glyph glyph-name="shu" unicode="&#58883;" d="M768 832a32 32 0 0 0 32-31.68V704h64c17.664 0 32-14.208 32-32v-32H128V768.064C128 803.392 156.736 832 191.68 832H768z m-32-64H223.776A31.904 31.904 0 0 1 192 736c0-17.792 14.24-32 31.776-32H736v64zM128 640h768v-640.288c0-35.2-28.704-63.712-64.16-63.712H192.16A63.904 63.904 0 0 0 128-0.2880000000000109V640z m64 0v-608.256A32 32 0 0 1 223.744 0h576.512A32 32 0 0 1 832 31.744000000000028V640H192z m475.52-222.816H317.952c-16.032 0-29.056 14.08-29.056 31.424s13.024 31.36 29.056 31.392h349.504c16.032 0 29.056-14.08 29.056-31.392 0-17.344-13.024-31.424-29.056-31.424z m-153.216-128h-194.24a31.264 31.264 0 0 0-31.136 31.424c0 17.344 13.952 31.392 31.136 31.392h194.208c17.184 0 31.104-14.08 31.104-31.392a31.264 31.264 0 0 0-31.104-31.424h0.032z"  horiz-adv-x="1024" />

    
    <glyph glyph-name="chongwu" unicode="&#58945;" d="M531.870739 791.026834c7.071818-11.738742 4.785978-25.334729-5.071708-30.335005-9.857686-5.000276-23.572728 0.452406-30.644545 12.191148-7.071818 11.738742-4.762167 25.334729 5.071708 30.335005 9.857686 5.000276 23.572728-0.476217 30.644545-12.191148M416.126266-23.232322c-4.8336 18.50102-14.096015 37.454445-30.025464 64.003527-1.809624 3.000165-14.881772 24.382296-18.358155 30.287383-3.071598 5.214573-6.26225 10.238659-11.453012 18.143857l-2.500137 3.762112c-15.072259 22.882213-21.620239 34.239982-27.120543 49.407485-11.072039 30.525492-10.333903 60.812875 7.786144 81.433059 12.834041 14.619853 27.35865 24.001323 43.192856 28.406327 28.072976 7.833765 57.122195-0.142865 85.123739-17.739073 7.048007-4.405005 13.476933-9.11955 19.191533-13.857906 3.476382-2.881111 6.000331-5.166951 7.428981-6.571791a11.905418 11.905418 0 0 0-16.667585-17.000937 159.556412 159.556412 0 0 1-22.620294 17.262856c-22.858402 14.381745-45.716805 20.643995-66.07507 15.000827-11.262525-3.166841-21.834537-10.000551-31.668412-21.191644-11.191093-12.762608-11.738742-34.382847-3.309706-57.622223 4.666924-12.857851 10.572011-23.096511 24.620405-44.407209l2.500137-3.809734c5.40506-8.190928 8.810009-13.524555 12.095905-19.167723 3.333517-5.666979 16.358044-26.906245 18.2391-30.073085 17.024748-28.358706 27.096731-49.0027 32.644656-70.241966 2.381084-9.143361 3.738301-17.977181 3.952599-26.572893a11.905418 11.905418 0 0 0-13.619798-12.095905c-10.524389 1.523893-40.597475 1.381028-60.574767-1.452461-12.143526-1.738191-20.953536-4.381194-24.763269-7.190872-1.000055-0.761947-0.928623 0.57146 1.71438-2.571571 9.11955-10.905363 50.288485-16.715207 81.790222-13.97696 29.525437 2.595381 54.002976 9.000496 104.315272 25.406162l8.619522 2.809678 23.715593 7.619468 4.809789 1.547704c63.693986 20.358265 94.695694 31.596979 129.173785 48.455051 54.598247 26.691947 97.243454 60.908118 124.292563 102.791379 36.692498 56.812655 47.645483 131.697734 37.502067 218.678717-8.905253 76.408972-31.835088 134.864575-73.599294 172.152344-11.524445 10.310092-26.644325 12.619743-29.120652 7.262305-1.857245-4.047842 1.404839-10.881552 11.143471-22.286943 67.765639-79.051975 93.624207-190.605742 64.717852-287.277735-29.954032-100.124565-119.435153-178.89081-220.440719-191.677229a11.905418 11.905418 0 0 0-12.381635 16.619963c19.191534 43.383343 25.429973 89.338256 16.405666 130.578624-9.786254 44.669128-30.954087 77.551893-83.647466 140.4125l-5.238384 6.26225c-44.335777 52.860056-63.455878 79.290084-79.361516 115.482554-12.191148 27.739624-16.905694 56.026897-12.429257 82.695033 7.881387 46.835914 30.19214 64.622609 85.195171 85.242793 10.595822 3.952599 14.857962 5.619357 19.834427 7.714711 44.692939 18.881993 79.099597 47.050212 132.364436 103.720001l-65.646474-2.381084a11.905418 11.905418 0 0 0-12.310202 12.453067c1.904867 40.335556-1.833434 62.170093-16.905694 76.623271-7.000386 6.667034-15.167502 10.81012-33.097062 17.691451-29.168274 11.191093-40.835584 17.810505-50.859945 32.811332-3.381139 5.047897-5.643168 9.833875-9.286226 18.691506-6.667034 16.119936-9.833875 20.78686-15.119881 22.477429-3.190652 1.000055-7.548035 0.642893-14.334123-1.214353-49.526539-13.500744-89.647797-57.479358-98.576861-108.029762-2.333462-13.167392-2.952544-26.430028-2.785868-48.050267l0.071432-7.524224c0.57146-50.478972-2.047732-72.456374-16.667585-97.838725-11.310147-19.572507-24.167998-31.192195-55.360193-54.169652-11.214904-8.26236-16.096125-11.95304-21.810726-16.667585a216.678607 216.678607 0 0 1-72.146833-115.434933c-14.453177-60.622388-4.26214-122.48294 27.953922-216.869093l7.97663-23.120322C258.093748 85.583198 269.451517 38.675852 266.832325-20.065481a11.905418 11.905418 0 0 0-12.167337-11.381579 501.813367 501.813367 0 0 1-88.766797-5.857466c-6.476547-1.023866-9.381469-2.047732-10.524389-3.404949-1.381028-1.595326-0.166676-6.857521 3.571625-9.738632 4.452626-3.476382 10.405335-5.000276 22.858403-6.309872 16.834261-1.762002 34.335225-2.8573 56.384059-3.690679 7.738522-0.309541 13.929339-0.500028 27.9063-0.928623 24.739459-0.714325 40.097448-1.285785 53.812489-2.119164 0.071433 6.83371 3.452571 13.167392 10.024362 18.072424 7.857576 5.833655 19.834426 9.40528 35.621011 11.66731a340.875927 340.875927 0 0 0 52.336217 2.523948 108.958385 108.958385 0 0 1-1.762002 8.024252zM265.403675-85.140495c-14.048393 0.404784-20.286832 0.619082-28.096787 0.904811a856.23766 856.23766 0 0 0-57.979385 3.809734c-16.715207 1.785813-25.882379 4.119275-35.001929 11.191093-13.524555 10.500579-18.2391 30.906465-7.071818 44.002425 6.024141 7.071818 13.072149 9.595767 24.953756 11.476823a525.386095 525.386095 0 0 0 81.147329 6.28606c0.476217 49.83608-11.048228 94.814749-41.264179 182.29576l-7.97663 23.215565c-33.573279 98.338752-44.383398 163.866173-28.596814 230.084108a240.489443 240.489443 0 0 0 80.123463 128.221351c6.190817 5.11933 11.310147 9.000496 22.810781 17.477154 28.620625 21.07259 39.835529 31.216006 48.907457 46.954968 11.762553 20.358265 14.048393 39.454555 13.524554 85.647577l-0.095243 7.619468c-0.190487 22.953646 0.476217 37.430634 3.14303 52.383839C344.45565 826.028763 391.291564 877.341115 449.675734 893.246753c10.857741 2.976354 19.215345 3.69068 27.858678 0.952433 14.52461-4.643113 20.572562-13.500744 29.192085-34.430468 3.762112-9.11955 5.547925-12.857851 7.786143-16.21518 6.309872-9.429091 15.000827-14.357934 37.621121-23.025078 22.78697-8.762388 32.954197-13.905528 42.978559-23.501295 19.739183-18.881993 25.429973-42.859505 24.668026-82.02833l73.646915 2.714436c13.429311 0.428595 20.882103-15.548476 11.714932-25.477595-63.741608-69.408587-102.077054-102.52946-154.746623-124.76878-5.357438-2.262029-9.833875-3.97641-19.334399-7.548035-49.193187-18.429587-65.384555-31.358871-71.432508-67.384666-3.666869-21.715482 0.28573-45.431075 10.714876-69.170478 14.715097-33.430414 32.930386-58.646089 75.813702-109.767954l5.238384-6.26225c55.098274-65.741718 77.790001-100.981755 88.671553-150.627348 8.738577-39.978394 4.857411-83.337926-9.857686-125.05451 83.052196 18.881993 154.937109 86.838119 180.200406 171.247532 26.549082 88.742986 2.619192 191.939148-60.003306 265.014604-15.691341 18.334344-22.048834 31.716033-14.667475 47.716915 11.548255 24.906134 45.00248 19.810615 66.598908 0.523838 46.907347-41.907071 71.861103-105.529625 81.409248-187.15317 10.714876-91.981259-1.023866-172.199965-41.168935-234.346247-29.668302-45.954913-75.623215-82.814087-133.816898-111.268037-35.859119-17.524775-67.622774-29.04922-132.388248-49.764647l-4.809789-1.523893-23.620349-7.619468-8.595712-2.785867c-52.002866-16.953315-77.742379-23.691782-109.625089-26.47765-34.787631-3.023976-75.647026 1.833434-95.624317 16.429477-18.50102 1.500083-34.525712 2.142975-68.694261 3.190652zM318.478028 596.944711a11.905418 11.905418 0 1 0 18.596263 14.857961c1.547704-1.904867 4.714546-5.524114 9.381469-10.238659 7.857576-7.952819 16.929504-15.905638 27.072921-23.334619 27.382461-20.048724 57.122195-32.382737 88.195336-33.382792a11.905418 11.905418 0 1 0-0.785758-23.810836c-36.430579 1.190542-70.551507 15.334178-101.481782 37.978283a249.608993 249.608993 0 0 0-29.930221 25.810946 167.437798 167.437798 0 0 0-11.048228 12.119716z"  horiz-adv-x="1024" />

    
    <glyph glyph-name="jiaotonggongjiaochekanfangtuandabaxianxing" unicode="&#58889;" d="M711.111111-14.222222H312.888889v-28.444445a28.444444 28.444444 0 0 0-56.888889 0v31.288889A142.279111 142.279111 0 0 0 142.222222 128V668.444444a142.222222 142.222222 0 0 0 142.222222 142.222223h455.111112a142.222222 142.222222 0 0 0 142.222222-142.222223v-540.444444a142.279111 142.279111 0 0 0-113.777778-139.377778V-42.666667a28.444444 28.444444 0 0 0-56.888889 0v28.444445z m113.777778 455.111111V668.444444a85.333333 85.333333 0 0 1-85.333333 85.333334H284.444444a85.333333 85.333333 0 0 1-85.333333-85.333334v-227.555555h625.777778z m0-56.888889H199.111111v-256a85.333333 85.333333 0 0 1 85.333333-85.333333h455.111112a85.333333 85.333333 0 0 1 85.333333 85.333333v256zM85.333333 554.666667a28.444444 28.444444 0 0 0 28.444445-28.444445v-113.777778a28.444444 28.444444 0 0 0-56.888889 0v113.777778a28.444444 28.444444 0 0 0 28.444444 28.444445z m853.333334 0a28.444444 28.444444 0 0 0 28.444444-28.444445v-113.777778a28.444444 28.444444 0 0 0-56.888889 0v113.777778a28.444444 28.444444 0 0 0 28.444445 28.444445zM284.444444 213.333333a56.888889 56.888889 0 1 0 0 113.777778 56.888889 56.888889 0 0 0 0-113.777778z m455.111112 0a56.888889 56.888889 0 1 0 0 113.777778 56.888889 56.888889 0 0 0 0-113.777778z"  horiz-adv-x="1024" />

    
    <glyph glyph-name="renminbicaiwuzhifu" unicode="&#58907;" d="M512 896C229.376 896 0 666.624 0 384s229.376-512 512-512 512 229.376 512 512S794.624 896 512 896z m204.8-477.696a34.304 34.304 0 0 0 0-68.608h-170.496v-136.704H716.8a34.304 34.304 0 0 0 0-68.608h-170.496v-102.4a34.304 34.304 0 0 0-68.608 0v102.4H307.2a34.304 34.304 0 0 0 0 68.608h170.496v136.704H307.2a34.304 34.304 0 0 0 0 68.608h170.496V440.32L282.624 635.904c-12.8 12.8-12.8 33.28 0 46.08s33.28 12.8 46.08 0l182.784-182.784 184.832 184.32c12.8 12.8 33.792 12.8 47.104 0 12.8-12.8 12.8-33.792 0-47.104l-197.12-197.12v-21.504H716.8z"  horiz-adv-x="1024" />

    
    <glyph glyph-name="shuiguo" unicode="&#58989;" d="M298.4-47.2C152-47.2 32.8 72 32.8 218.4S152 484 298.4 484s265.6-119.2 265.6-265.6-119.2-265.6-265.6-265.6z m0 483.2c-120 0-217.6-97.6-217.6-217.6s97.6-217.6 217.6-217.6 217.6 97.6 217.6 217.6S418.4 436 298.4 436zM795.6 80c-106.8 0-194 86.8-194 194 0 32 8 63.6 22.8 91.6 5.2 9.6 17.2 13.2 27.2 8 9.6-5.2 13.2-17.2 8-27.2-12-22-18-47.2-18-72.4 0-84.8 68.8-154 154-154s154 68.8 154 154-68.8 154-154 154c-29.2 0-58-8.4-82.4-24l-14-9.2-11.2 12.4c-5.2 5.6-128 143.6-32 372.8 4.4 10 16 14.8 26 10.8 10-4.4 15.2-16 10.8-26-70.4-168.4-10-281.6 15.2-317.6 27.2 14 57.2 21.2 88 21.2 106.8 0 194-86.8 194-194S902.4 80 795.6 80zM812 770H404c-11.2 0-20 8.8-20 20s8.8 20 20 20h408c11.2 0 20-8.8 20-20s-8.8-20-20-20zM334 456c-2.4 0-4.8 0.4-7.2 1.2-10.4 4-15.6 15.6-11.6 26 1.2 2.8 28 72 82.8 144.4 73.6 98 162 154.4 256 164 10.8 1.2 20.8-6.8 22-18 1.2-10.8-6.8-20.8-18-22-201.6-20.4-304.4-280.8-305.2-283.2-3.2-7.6-10.8-12.4-18.8-12.4zM174 198.4c-10.8 0-19.6 8.8-20 19.6-2.4 89.6 108 132.8 112.8 134.8 10.4 4 22-1.2 26-11.6s-1.2-22-11.6-26c-0.8-0.4-88.8-35.2-87.2-96.4 0.4-11.2-8.4-20.4-19.6-20.4h-0.4z"  horiz-adv-x="1024" />

    
    <glyph glyph-name="yifu-" unicode="&#58890;" d="M1117.5659375 635.9259374999999L912.284375 841.2a73.8646875 73.8646875 0 0 1-58.126875 21.451875 69.22125 69.22125 0 0 1-5.9625 0.268125H738.828125l-7.6715625-4.2646875c-40.5225-22.54125-92.2153125-34.9471875-145.5684375-34.9471875-53.3540625 0-105.046875 12.4059375-145.56 34.9471875l-7.6715625 4.2646875H322.990625a74.510625 74.510625 0 0 1-65.9071875-39.37875L54.171875 620.630625A73.670625 73.670625 0 0 1 32.4434375 568.2c0-19.809375 7.7165625-38.4375 21.72-52.44l148.2553125-148.25625a73.531875 73.531875 0 0 1 45.70125-21.405v-358.2834375c0-41.28 33.58125-74.86125 74.86125-74.86125h525.2128125c41.28 0 74.86125 33.571875 74.86125 74.86125V361.33875a73.550625 73.550625 0 0 1 46.246875 21.451875l148.26375 148.25625c28.910625 28.9190625 28.910625 75.9684375 0 104.8790625z m-47.86125-57.028125l-148.25625-148.2459375a6.2765625 6.2765625 0 0 0-4.5225-1.8825 6.3965625 6.3965625 0 0 0-4.4671875 1.771875l-57.075 53.870625v-496.5965625a7.20375 7.20375 0 0 0-7.2-7.2H323a7.2 7.2 0 0 0-7.2 7.2V466.7353125l-56.611875-51.5625a6.4153125 6.4153125 0 0 0-4.3846875-1.689375 6.2765625 6.2765625 0 0 0-4.5234375 1.873125l-148.25625 148.25625a6.369375 6.369375 0 0 0-1.9003125 4.5871875 6.369375 6.369375 0 0 0 1.90125 4.57875L306.8553125 777.609375l6.5446875 5.88 2.9353125 7.246875a7.2 7.2 0 0 0 6.65625 4.513125h92.085c49.5328125-25.68 108.2775-39.2128125 170.52-39.2128125 62.2434375 0 120.988125 13.5328125 170.52 39.2128125h92.0315625c0.3684375-0.01875 0.7378125-0.0740625 1.0884375-0.129375l4.828125-0.691875 4.8375 0.70125a6.0834375 6.0834375 0 0 0 5.5378125-1.78125l205.2740625-205.275a6.49875 6.49875 0 0 0 0-9.174375z"  horiz-adv-x="1181" />

    
    <glyph glyph-name="yanjing1" unicode="&#59059;" d="M1004.552605 838.518319c10.670252 16.005378 7.056134 37.517983-7.056134 49.909244-16.005378 12.563361-37.517983 8.949244-49.909244-7.056134-1.721008-1.721008-199.809076-235.60605-435.415126-235.606051C283.622185 645.765378 76.584874 881.371429 74.863866 883.092437c-12.563361 14.28437-35.624874 16.005378-49.909244 3.614118-14.28437-12.563361-16.005378-35.624874-3.614118-49.909244 3.614118-5.335126 46.467227-53.523361 114.274958-107.046723l-91.041344-94.655462c-14.28437-14.28437-12.563361-37.517983 1.721008-49.909244 3.614118-7.056134 12.563361-10.670252 21.340504-10.670252 8.949244 0 17.898487 3.614118 24.954622 10.670252l98.097479 101.711597c46.467227-32.182857 101.711597-62.472605 162.463193-83.813109L315.805042 476.24605C310.469916 456.626555 321.140168 437.007059 340.759664 431.671933h10.670252c16.005378 0 30.289748 10.670252 33.903866 26.847731l37.517983 126.666218c28.568739-5.335126 58.858487-8.949244 89.320336-8.949243s60.751597 3.614118 89.320336 8.949243l37.517983-124.94521c3.614118-16.005378 19.619496-26.847731 33.903866-26.847731 3.614118 0 7.056134 0 8.949243 1.721009 19.619496 5.335126 30.289748 24.954622 24.954622 44.574117l-37.517983 124.94521c60.751597 21.340504 115.995966 51.802353 162.463193 83.81311l96.376471-99.990589c7.056134-7.056134 16.005378-10.670252 24.954622-10.670252s17.898487 3.614118 24.954622 10.670252c14.28437 14.28437 14.28437 35.624874 1.721008 49.909244l-91.041345 94.655462c73.142857 53.695462 115.823866 105.497815 115.823866 105.497815z"  horiz-adv-x="1024" />

    
    <glyph glyph-name="saoyisao1" unicode="&#59061;" d="M129.386836 513.447211c18.762319 0 33.926694 15.570627 33.926693 34.833343V712.149738c0 16.467043 13.414521 30.244838 29.444613 30.244838h158.593018c18.762319 0 33.926694 15.570627 33.926694 34.833343 0 19.268856-15.164375 34.839483-33.926694 34.839483H192.869682c-53.661154 0-97.404424-44.919049-97.404423-100.029204v-162.752758c0-20.158109 15.162328-35.83823 33.921577-35.838229z m507.95794 228.948389H827.674613c16.036231 0 29.452799-13.778818 29.452799-30.244838v-162.864298c0-19.262716 15.162328-34.833343 33.920553-34.833343 18.760273 0 33.9226 15.570627 33.922601 34.833343V712.149738c0 55.113225-43.739177 100.027158-97.403401 100.027158h-190.222389c-18.762319 0-33.918507-15.570627-33.918507-34.83539 0-19.265786 15.156188-34.945907 33.918507-34.945906z m254.251682-484.892619c-18.766412 0-33.926694-15.570627-33.926694-34.833343v-162.864298c0-16.467043-13.418614-30.244838-29.446659-30.244838H637.887129c-18.758226 0-33.920554-15.564487-33.920554-34.833343s15.162328-34.83539 33.920554-34.83539h190.335976c53.6632 0 97.400331 44.915979 97.40033 100.023065V222.669638c-0.10847 19.262716-15.272845 34.833343-34.026977 34.833343zM351.899652 28.554592H192.869682c-16.036231 0-29.450752 13.776771-29.450752 30.244838V221.655542c0 19.270902-15.158235 34.841529-33.920554 34.841529-18.764366 0-33.920554-15.570627-33.920554-34.841529V58.79943c0-55.113225 43.735084-100.027158 97.400331-100.027158H351.571171c18.762319 0 33.926694 15.570627 33.926693 34.833343-0.112564 19.378349-14.839986 34.948977-33.598212 34.948977zM923.333276 420.365232H97.755418c-18.758226 0-33.918507-15.570627-33.918507-34.833343 0-19.268856 15.160281-34.839483 33.918507-34.839482H923.333276c18.762319 0 33.9226 15.570627 33.922601 34.839482 0 19.262716-15.160281 34.833343-33.922601 34.833343z m0 0"  horiz-adv-x="1024" />

    
    <glyph glyph-name="shuidian" unicode="&#58988;" d="M782.75723266 319.13962809c-3.10720825 54.59243774-21.30386352 107.48336792-52.62231445 152.95358276L526.57446289 767.61005655a41.39071656 41.39071656 0 0 1-34.01696777 17.92144776h-0.06674194c-13.57415771 0-26.29714966-6.66265869-34.06970216-17.87200928L254.39257812 472.19126383c-31.37695313-45.43972778-49.62799073-98.31665039-52.78381348-152.91485595-2.97949219-51.55197143 7.37786865-103.53982544 29.95147706-150.34240724 21.66723633-44.92556763 53.95880127-83.53125 93.38269043-111.64031982 42.05401612-29.98690796 92.10388184-47.72296143 144.73937988-51.29159546 7.37869263-0.50015258 14.93041992-0.75311279 22.44342041-0.75311279 7.51629638 0 15.06143188 0.25296021 22.41952515 0.75311279 52.61901856 3.56204224 102.66311646 21.28326416 144.72042847 51.24627685 39.428833 28.09176636 71.7352295 66.67355347 93.42636108 111.57769776 22.60244751 46.78527833 32.99853516 98.76159668 30.06436157 150.31274414zM707.74917602 190.54026284999998c-18.05328369-37.36807251-44.83245849-69.40090943-77.44537353-92.63534546-35.02468872-24.95489502-75.10610962-39.11819458-119.13272095-42.09933471-12.48486328-0.84786987-25.59265137-0.84786987-38.11129761 0-44.03155518 2.98526001-84.11462403 17.16009521-119.13519286 42.13146973-32.60714722 23.25009156-59.37313843 55.29858398-77.40335084 92.68231201-18.89703369 39.18081665-27.56854248 82.67431641-25.0784912 125.77807617 2.62847901 45.45950318 17.85140992 89.52484131 44.02578735 127.43179321L492.47180175 729.1230265300001l196.5550232-285.34570313c26.12823487-37.93579102 41.30584717-82.01513672 43.89312744-127.47463989 2.45462036-43.10623169-6.24984742-86.59396362-25.17077637-125.76159669zM620.00906372 378.4353129H500.14300537c-5.15231323 0-8.98379516 4.65298462-8.07330323 9.72454834l19.45404054 110.83117675c1.48727417 8.43338013-9.23345948 13.30801391-14.60494995 6.67089844l-162.64022828-200.44830321c-4.40826416-5.42669677-0.54629516-13.53048706 6.42370605-13.53048706h124.52398682c5.15396118 0 9.06619263-4.65133667 8.15982056-9.72290039L455.25451661 178.65030923999996c-1.48892212-8.43338013 9.22686768-13.30801391 14.60247802-6.66677857l156.54693603 192.9204712c4.40826416 5.42669677 0.60726929 13.53131104-6.39404296 13.53131103z"  horiz-adv-x="1033" />

    
    <glyph glyph-name="sousuo" unicode="&#58925;" d="M176.64 490.24c-15.36 3.84-29.44-6.4-33.28-20.48-5.12-23.04-8.96-39.68-8.96-66.56 0-15.36 12.8-28.16 28.16-28.16s28.16 12.8 28.16 28.16c0 21.76 2.56 32 7.68 53.76 2.56 15.36-6.4 29.44-21.76 33.28zM471.04 729.6c-117.76 0-229.12-62.72-289.28-165.12-3.84-6.4-5.12-14.08-2.56-20.48 1.28-7.68 6.4-12.8 12.8-16.64 3.84-2.56 8.96-3.84 14.08-3.84 10.24 0 19.2 5.12 24.32 14.08 49.92 84.48 143.36 138.24 241.92 138.24 15.36 0 28.16 12.8 28.16 28.16s-14.08 25.6-29.44 25.6zM1013.76-24.32L826.88 162.56l-1.28 1.28c47.36 71.68 75.52 157.44 75.52 248.32 0 248.32-202.24 450.56-450.56 450.56C202.24 862.72 0 661.76 0 413.44c0-248.32 202.24-450.56 450.56-450.56 90.88 0 174.08 26.88 244.48 72.96L641.28 89.6c-56.32-33.28-121.6-52.48-190.72-52.48C243.2 37.12 74.24 206.08 74.24 413.44S243.2 789.76 450.56 789.76s376.32-168.96 376.32-376.32c0-97.28-38.4-186.88-99.84-253.44l42.24-42.24c1.28-2.56 2.56-3.84 5.12-6.4l186.88-186.88c7.68-7.68 16.64-10.24 25.6-10.24s19.2 3.84 25.6 10.24c15.36 14.08 15.36 37.12 1.28 51.2z"  horiz-adv-x="1024" />

    
    <glyph glyph-name="icon_shijianpaixuxia" unicode="&#58954;" d="M760.32 26.88c-8.96 0-16.64 3.84-23.04 10.24L554.24 224c-12.8 12.8-11.52 33.28 0 44.8 12.8 12.8 33.28 11.52 44.8 0l160-163.84L920.32 268.8c12.8 12.8 32 12.8 44.8 0s12.8-32 0-44.8L783.36 35.84c-6.4-5.12-15.36-8.96-23.04-8.96zM760.32 40.96c-17.92 0-32 14.08-32 32V683.52c0 17.92 14.08 32 32 32s32-14.08 32-32v-610.56c0-17.92-15.36-32-32-32zM322.56 65.28h-140.8c-17.92 0-32 14.08-32 32s14.08 32 32 32h140.8c17.92 0 32-14.08 32-32s-14.08-32-32-32zM463.36 358.4h-281.6c-17.92 0-32 14.08-32 32s14.08 32 32 32h281.6c17.92 0 32-14.08 32-32S481.28 358.4 463.36 358.4zM600.32 651.52H181.76c-17.92 0-32 14.08-32 32s14.08 32 32 32h418.56c17.92 0 32-14.08 32-32s-14.08-32-32-32z"  horiz-adv-x="1024" />

    
    <glyph glyph-name="timer" unicode="&#58955;" d="M538.752 777.770667V822.4a28.444444 28.444444 0 0 1-56.888889 0v-44.885333C258.346667 761.984 81.194667 575.317333 81.194667 347.918222c0-237.496889 193.265778-430.762667 430.805333-430.762666s430.805333 193.265778 430.805333 430.762666c0 228.536889-178.929778 415.985778-404.053333 429.852445zM512-25.955556c-206.179556 0-373.916444 167.736889-373.916444 373.873778 0 206.165333 167.736889 373.888 373.916444 373.888s373.916444-167.722667 373.916444-373.888c0-206.136889-167.736889-373.873778-373.916444-373.873778zM365.980444 89.756444c-92.856889 52.664889-150.542222 151.608889-150.542222 258.176 0 7.879111-6.357333 14.222222-14.222222 14.222223-7.864889 0-14.222222-6.343111-14.222222-14.222223 0-116.792889 63.217778-225.208889 164.963555-282.936888a14.222222 14.222222 0 0 1 14.023111 24.760888zM443.548444 50.744889a318.734222 318.734222 0 0 0-16.398222 4.750222 14.222222 14.222222 0 0 1-8.647111-27.093333c5.916444-1.905778 11.861333-3.612444 17.934222-5.162667a14.222222 14.222222 0 0 1 17.322667 10.211556 14.179556 14.179556 0 0 1-10.211556 17.294222zM879.032889 629.390222a28.430222 28.430222 0 0 1 40.163555 40.277334l-73.856 73.671111a28.416 28.416 0 0 1-40.220444-0.056889 28.458667 28.458667 0 0 1 0.056889-40.220445l73.856-73.671111zM538.737778 353.223111V580.622222a28.444444 28.444444 0 0 1-56.888889 0v-239.687111c0-7.836444 4.081778-15.303111 9.770667-20.664889l83.242666-77.795555c5.504-5.176889 12.515556-7.765333 19.527111-7.765334a27.306667 27.306667 0 0 1 20.238223 8.931556c10.823111 11.434667 9.856 29.425778-1.564445 40.206222l-74.325333 69.376z"  horiz-adv-x="1024" />

    
    <glyph glyph-name="shouye" unicode="&#59425;" d="M885.76 311.483c-5.912 5.52-14.232 8.56-23.429 8.56-18.744 0-32.35-12.304-32.35-29.255v-241.44c0-19.081-18.867-37.12-38.824-37.12H629.481c-18.708 0-32.286-12.302-32.286-29.255 0-16.952 13.578-29.256 32.286-29.256h161.676c57.014 0 103.398 42.9 103.398 95.63V290.787c0 8.167-3.04 15.325-8.795 20.695z m121.316 73.888L536.555 824.545c-3.809 3.565-13.593 8.567-23.47 8.567-9.844 0-19.654-5.016-23.476-8.576L19.085 385.39c-4.022-7.544-9.86-18.657-10.365-22.348 0.073-8.17 4.868-17.648 10.218-27.698 4.474-3.383 13.23-7.372 22.068-7.372 9.877 0 19.66 5.002 23.453 8.553l60.656 56.606v-342.743c0-52.827 46.399-95.804 103.43-95.804h168.15c18.689 0 32.255 12.302 32.255 29.254V177.031h200.533c18.708 0 32.289 12.33 32.289 29.317 0 16.915-13.58 29.193-32.289 29.193h-232.79c-18.708 0-32.286-12.278-32.286-29.193v-188.06h-129.42c-19.975 0-38.859 18.04-38.859 37.121V459.436l316.894 295.758L961.63 342.601c4.542-4.19 14.327-8.63 23.538-8.63 9.841 0 19.656 5.014 23.48 8.576 4.292 4 8.735 12.734 8.804 20.495-0.506 3.77-6.464 15.053-10.377 22.33z"  horiz-adv-x="1024" />

    


  </font>
</defs>
</svg>
